<svg width="200" height="72" viewBox="0 0 200 72" fill="none" xmlns="http://www.w3.org/2000/svg">
<g opacity="0.6" clip-path="url(#clip0_656_1151)">
<rect width="200" height="72" fill="#191919"/>
<path d="M82.3586 47.5818C81.8624 47.1564 81.5775 46.7106 81.5512 46.2423L82.3586 47.5818ZM82.3586 47.5818L82.3611 47.5839C82.9008 48.0255 83.661 48.2361 84.6219 48.2361H86.7246H86.8652V48.0956V47.8199V47.6794H86.7246H85.6687L85.3021 47.6127L85.2954 47.6114L85.2883 47.611C85.0698 47.5927 84.8267 47.4446 84.5623 47.1156C84.3337 46.7803 84.2107 46.2969 84.2107 45.648V34.858C84.2107 33.7074 83.9167 32.7546 83.3178 32.0118L83.3162 32.0096C82.9241 31.5441 82.3094 31.2 81.4912 30.9659C80.6909 30.7073 79.6525 30.5806 78.3822 30.5806C77.0827 30.5806 75.8912 31.0303 74.8115 31.9222C73.9482 32.6168 73.2989 33.3611 72.8693 34.1561V30.8591V30.7185H72.7284H70.3154H70.1748V30.8591V48.0956V48.2361H70.3154H72.7284H72.8693V48.0956V35.8577C72.8693 34.9968 73.4206 33.9973 74.585 32.8555L74.5863 32.8545C75.7356 31.7052 77.0222 31.1376 78.451 31.1376C79.1478 31.1376 79.7221 31.2498 80.18 31.4672C81.0491 31.9354 81.5166 33.024 81.5166 34.8235V45.648V45.6522V45.6563L81.5512 46.2419L82.3586 47.5818ZM68.0016 25.5435L68.1313 25.5933L68.1826 25.4645L68.3207 25.1198L68.3761 24.9813L68.2348 24.9342C65.8772 24.1484 63.5526 23.7549 61.261 23.7549C58.9894 23.7549 57.2599 24.2877 56.0977 25.3782C54.9399 26.4417 54.3636 27.8366 54.3636 29.5491C54.3636 31.7098 55.2598 33.3858 57.046 34.5613C57.8342 35.0943 58.7025 35.5804 59.6504 36.0198L59.6533 36.0209C60.5958 36.4348 61.5271 36.8372 62.4471 37.2281L62.4483 37.2286C63.385 37.6172 64.2412 38.0395 65.016 38.4954C66.7255 39.5075 67.5671 40.9005 67.5671 42.6833C67.5671 44.3164 66.9219 45.5462 65.6312 46.392C64.3484 47.2248 62.7903 47.6448 60.9507 47.6448C59.7013 47.6448 58.4744 47.4634 57.27 47.0997C56.0868 46.7127 55.1264 46.2256 54.3845 45.6409L54.2614 45.5442L54.178 45.6772L54.0058 45.9529L53.9353 46.0659L54.0442 46.1426C56.071 47.5635 58.5136 48.2708 61.3644 48.2708C62.8912 48.2708 64.2274 48.0973 65.3701 47.7474L65.3718 47.747C66.5491 47.3704 67.5487 46.6635 68.369 45.6322C69.1952 44.5937 69.6064 43.3439 69.6064 41.8905C69.6064 40.4287 69.3629 39.2207 68.8666 38.275C68.3745 37.3146 67.7276 36.5603 66.9244 36.017C66.1354 35.4833 65.2663 35.0082 64.3167 34.5914C63.3717 34.1764 62.4262 33.8075 61.4808 33.4846C60.5666 33.1417 59.7221 32.7764 58.9465 32.3887C57.237 31.4886 56.4029 30.2331 56.4029 28.6183C56.4029 27.2802 56.9021 26.2429 57.8984 25.49C58.8997 24.7333 60.3022 24.3463 62.123 24.3463C63.9639 24.3463 65.9235 24.7441 68.0016 25.5435ZM87.6017 33.0004L87.6012 33.0012C86.0056 34.6202 85.2166 36.8891 85.2166 39.7877C85.2166 42.6837 85.9815 44.8544 87.5378 46.2694C89.0851 47.6756 91.0856 48.3742 93.5274 48.3742C95.9967 48.3742 98.0335 47.5689 99.6253 45.9541C101.244 44.3352 102.045 42.066 102.045 39.1672C102.045 36.2711 101.28 34.1004 99.7237 32.6855C98.1761 31.2788 96.1639 30.5806 93.6996 30.5806C91.2524 30.5806 89.216 31.3861 87.6017 33.0004ZM89.5376 33.4252L89.5384 33.4244C90.6644 31.8931 92.0719 31.1376 93.7684 31.1376C95.4737 31.1376 96.8345 31.7855 97.8642 33.0838C98.8926 34.3805 99.4193 36.3994 99.4193 39.1672C99.4193 41.9069 98.8484 44.0341 97.7236 45.5642C96.598 47.0726 95.1901 47.8174 93.4928 47.8174C91.7879 47.8174 90.4267 47.1694 89.397 45.8711C88.3686 44.5741 87.8419 42.5665 87.8419 39.8221C87.8419 37.0585 88.4132 34.932 89.5376 33.4252ZM125.533 30.9665L125.43 31.0692L125.536 31.1685C125.867 31.4788 126.043 31.942 126.043 32.5827C126.043 33.2296 125.909 33.7791 125.648 34.2366L125.645 34.2419L125.642 34.2475L120.786 44.7643L115.629 30.8104L115.595 30.7185H115.497H113.084H112.883L112.952 30.9074L114.208 34.3348L109.409 44.7639L104.253 30.8104L104.219 30.7185H104.121H101.708H101.505L101.576 30.9081L107.988 48.1448L108.022 48.2361H108.12H108.464H108.555L108.593 48.154L114.519 35.1228L119.364 48.1448L119.398 48.2361H119.496H119.84H119.931L119.969 48.154L126.243 34.3647L126.244 34.3618C126.526 33.703 126.669 33.0522 126.669 32.4104C126.669 32.2386 126.645 32.0573 126.598 31.8672C126.569 31.6556 126.466 31.4313 126.302 31.1962C126.232 31.0797 126.165 30.9826 126.102 30.9069C126.04 30.8326 125.973 30.7692 125.902 30.7333L125.811 30.688L125.74 30.7596L125.533 30.9665Z" fill="white" stroke="white" stroke-width="0.281209"/>
<path d="M132.009 24.2134C132.656 23.2217 133.706 22.4535 135.162 22.3855L134.858 45.8876V45.8893C134.858 46.102 134.924 46.3305 135.045 46.5728C135.611 47.7051 136.961 48.2359 138.997 48.2359H140.066H140.207V48.0954V47.8197V47.6792H140.066H139.01L138.643 47.6125L138.637 47.6112L138.63 47.6108C138.411 47.5925 138.168 47.4444 137.904 47.1154C137.675 46.7801 137.552 46.2967 137.552 45.6478V22.275V22.1367L137.414 22.1344L135.307 22.1L135.166 22.0977L135.166 22.1018C132.807 22.1443 131.062 22.699 129.966 23.7953C128.846 24.8919 128.304 26.7198 128.304 29.2386V30.7183H127.721H127.58V30.8589V31.4159V31.5565H127.721H128.304V48.0954V48.2359H128.445H130.858H130.998V48.0954V31.5565H133.581H133.721V31.4159V30.8589V30.7183H133.581H130.998V29.2386C130.998 26.878 131.343 25.2128 132.009 24.2146L132.009 24.2134ZM150.366 39.6688C149.896 39.6311 149.38 39.6124 148.818 39.6124C148.193 39.6124 147.511 39.6471 146.773 39.7162C145.286 39.8085 144.056 39.9817 143.085 40.2375C142.116 40.4929 141.392 40.834 140.93 41.2712C140.486 41.6918 140.2 42.0929 140.098 42.4746C140.003 42.829 139.955 43.1631 139.955 43.4763C139.955 43.7594 139.979 44.0426 140.026 44.3254C140.225 45.6603 140.747 46.6787 141.603 47.361C142.457 48.042 143.627 48.374 145.094 48.374C146.355 48.374 147.452 48.1142 148.379 47.5887C149.17 47.14 149.832 46.5011 150.366 45.6753V45.8893C150.366 46.3188 150.669 46.7905 151.2 47.2989C151.818 47.9386 152.937 48.2359 154.506 48.2359H155.574H155.715V48.0954V47.8197V47.6792H155.574H154.518L154.152 47.6125L154.145 47.6112L154.138 47.6108C153.919 47.5925 153.677 47.4444 153.412 47.1154C153.183 46.7801 153.06 46.2967 153.06 45.6478V34.0994C153.06 33.3222 152.744 32.5892 152.129 31.9029C151.725 31.4506 151.117 31.1211 150.32 30.9042C149.522 30.6872 148.526 30.5804 147.335 30.5804C145.199 30.5804 143.099 31.0565 141.037 32.0067L140.897 32.0709L140.974 32.2042L141.111 32.4455L141.181 32.567L141.303 32.4981C141.815 32.2084 142.629 31.9133 143.752 31.6153L143.753 31.6148C144.895 31.2952 145.881 31.1374 146.715 31.1374C147.554 31.1374 148.223 31.2511 148.727 31.4705V31.4705L148.732 31.4725C149.248 31.6744 149.586 31.9138 149.771 32.18C149.971 32.4692 150.126 32.7685 150.237 33.078L150.239 33.0839L150.241 33.0896C150.373 33.374 150.406 33.5929 150.37 33.7569C150.346 33.8516 150.332 33.936 150.332 34.0046C150.332 34.039 150.335 34.0779 150.349 34.1151C150.353 34.1271 150.359 34.1396 150.366 34.152V39.6688ZM142.718 44.2916L142.718 44.2895C142.695 44.063 142.684 43.8612 142.684 43.6831C142.684 42.6964 142.942 41.9411 143.44 41.3995C143.682 41.1363 144.074 40.9048 144.632 40.7133C145.188 40.5224 145.898 40.3746 146.765 40.2719C147.38 40.2036 147.996 40.1694 148.611 40.1694C149.206 40.1694 149.791 40.1891 150.366 40.2287V44.2628C150.3 44.988 149.805 45.7708 148.829 46.6099C147.889 47.4165 146.829 47.8172 145.646 47.8172C144.761 47.8172 144.088 47.5257 143.608 46.9535C143.123 46.3759 142.82 45.4952 142.718 44.2916ZM158.646 22.2405V22.1H158.505H156.092H155.952V22.2405V48.0954V48.2359H156.092H158.505H158.646V48.0954V39.8401L159.422 38.9486L165.697 48.1746L165.739 48.2359H165.814H168.227H168.492L168.343 48.0166L160.993 37.2133L166.54 30.9521L166.747 30.7183H166.434H166.09H166.027L165.984 30.7656L158.646 39.0379V22.2405ZM181.749 46.8681L181.695 46.7438L181.569 46.7922C179.795 47.4744 177.767 47.8172 175.483 47.8172C173.897 47.8172 172.617 47.1725 171.631 45.8738C170.67 44.5768 170.177 42.5227 170.177 39.684C170.177 39.0671 170.207 38.4705 170.266 37.8942H182.447H182.587V37.7535V37.7529V37.7522V37.7515V37.7509V37.7502V37.7495V37.7488V37.7482V37.7475V37.7468V37.7461V37.7454V37.7448V37.7441V37.7434V37.7428V37.7421V37.7414V37.7407V37.7401V37.7394V37.7387V37.7381V37.7374V37.7367V37.736V37.7353V37.7347V37.734V37.7333V37.7327V37.732V37.7313V37.7306V37.73V37.7293V37.7286V37.728V37.7273V37.7266V37.7259V37.7253V37.7246V37.7239V37.7233V37.7226V37.7219V37.7212V37.7205V37.7199V37.7192V37.7185V37.7179V37.7172V37.7165V37.7158V37.7152V37.7145V37.7138V37.7131V37.7125V37.7118V37.7111V37.7105V37.7098V37.7091V37.7084V37.7077V37.7071V37.7064V37.7057V37.7051V37.7044V37.7037V37.703V37.7024V37.7017V37.701V37.7004V37.6997V37.699V37.6983V37.6976V37.697V37.6963V37.6956V37.695V37.6943V37.6936V37.6929V37.6923V37.6916V37.6909V37.6903V37.6896V37.6889V37.6882V37.6876V37.6869V37.6862V37.6856V37.6848V37.6842V37.6835V37.6828V37.6822V37.6815V37.6808V37.6801V37.6795V37.6788V37.6781V37.6775V37.6768V37.6761V37.6754V37.6748V37.6741V37.6734V37.6728V37.6721V37.6714V37.6707V37.67V37.6694V37.6687V37.668V37.6674V37.6667V37.666V37.6653V37.6647V37.664V37.6633V37.6627V37.6619V37.6613V37.6606V37.6599V37.6593V37.6586V37.6579V37.6572V37.6566V37.6559V37.6552V37.6546V37.6539V37.6532V37.6525V37.6519V37.6512V37.6505V37.6499V37.6492V37.6485V37.6478V37.6471V37.6465V37.6458V37.6451V37.6445V37.6438V37.6431V37.6424V37.6418V37.6411V37.6404V37.6398V37.6391V37.6384V37.6377V37.6371V37.6364V37.6357V37.635V37.6344V37.6337V37.633V37.6323V37.6317V37.631V37.6303V37.6297V37.629V37.6283V37.6276V37.627V37.6263V37.6256V37.625V37.6242V37.6236V37.6229V37.6222V37.6216V37.6209V37.6202V37.6195V37.6189V37.6182V37.6175V37.6169V37.6162V37.6155V37.6148V37.6142V37.6135V37.6128V37.6122V37.6115V37.6108V37.6101V37.6094V37.6088V37.6081V37.6074V37.6068V37.6061V37.6054V37.6047V37.6041V37.6034V37.6027V37.6021V37.6014V37.6007V37.6V37.5994V37.5987V37.598V37.5973V37.5966V37.596V37.5953V37.5946V37.594V37.5933V37.5926V37.5919V37.5913V37.5906V37.5899V37.5893V37.5886V37.5879V37.5872V37.5865V37.5859V37.5852V37.5845V37.5839V37.5832V37.5825V37.5818V37.5812V37.5805V37.5798V37.5792V37.5785V37.5778V37.5771V37.5765V37.5758V37.5751V37.5745V37.5738V37.5731V37.5724V37.5717V37.5711V37.5704V37.5697V37.569V37.5684V37.5677V37.567V37.5664V37.5657V37.565V37.5643V37.5637V37.563V37.5623V37.5617V37.561V37.5603V37.5596V37.5589V37.5583V37.5576V37.5569V37.5563V37.5556V37.5549V37.5542V37.5536V37.5529V37.5522V37.5516V37.5509V37.5502V37.5495V37.5488V37.5482V37.5475V37.5468V37.5462V37.5455V37.5448V37.5441V37.5435V37.5428V37.5421V37.5415V37.5408V37.5401V37.5394V37.5388V37.5381V37.5374V37.5368V37.536V37.5354V37.5347V37.534V37.5334V37.5327V37.532V37.5313V37.5307V37.53V37.5293V37.5287V37.528V37.5273V37.5266V37.526V37.5253V37.5246V37.5239V37.5233V37.5226V37.5219V37.5212V37.5206V37.5199V37.5192V37.5186V37.5179V37.5172V37.5165V37.5159V37.5152V37.5145V37.5139V37.5132V37.5125V37.5118V37.5111V37.5105V37.5098V37.5091V37.5084V37.5078V37.5071V37.5064V37.5058V37.5051V37.5044V37.5037V37.5031V37.5024V37.5017V37.5011V37.5004V37.4997V37.499V37.4983V37.4977V37.497V37.4963V37.4957V37.495V37.4943V37.4936V37.493V37.4923V37.4916V37.491V37.4903V37.4896V37.4889V37.4883V37.4876V37.4869V37.4862V37.4856V37.4849V37.4842V37.4835V37.4829V37.4822V37.4815V37.4808V37.4802V37.4795V37.4788V37.4782V37.4775V37.4768V37.4762V37.4754V37.4748V37.4741V37.4734V37.4728V37.4721V37.4714V37.4707V37.4701V37.4694V37.4687V37.4681V37.4674V37.4667V37.466V37.4654V37.4647V37.464V37.4634V37.4627V37.462V37.4613V37.4606V37.46V37.4593V37.4586V37.458V37.4573V37.4566V37.4559V37.4553V37.4546V37.4539V37.4533V37.4526V37.4519V37.4512V37.4506V37.4499V37.4492V37.4485V37.4478V37.4472V37.4465V37.4458V37.4452V37.4445V37.4438V37.4431V37.4425V37.4418V37.4411V37.4405V37.4398V37.4391V37.4384V37.4377V37.4371V37.4364V37.4357V37.4351V37.4344V37.4337V37.433V37.4324V37.4317V37.431V37.4304V37.4297V37.429V37.4283V37.4277V37.427V37.4263V37.4257V37.4249V37.4243V37.4236V37.4229V37.4223V37.4216V37.4209V37.4202V37.4196V37.4189V37.4182V37.4176V37.4169V37.4162V37.4155V37.4149V37.4142V37.4135V37.4129V37.4122V37.4115V37.4108V37.4101V37.4095V37.4088C182.587 35.1745 181.935 33.4645 180.609 32.3044C179.293 31.1535 177.674 30.5804 175.759 30.5804C173.379 30.5804 171.411 31.3869 169.866 33.0024C168.317 34.6217 167.551 36.8901 167.551 39.7875C167.551 42.6818 168.281 44.8517 169.767 46.2667C171.245 47.6746 173.155 48.374 175.483 48.374C177.819 48.374 179.916 48.0157 181.774 47.2959L181.909 47.2434L181.852 47.1095L181.749 46.8681ZM178.716 32.6692C179.498 33.6686 179.92 35.2166 179.96 37.3372H170.336C170.621 35.4102 171.249 33.9063 172.21 32.8139C173.222 31.689 174.358 31.1374 175.621 31.1374C176.886 31.1374 177.915 31.6451 178.716 32.6692Z" fill="white" stroke="white" stroke-width="0.281209"/>
<path d="M185.628 21.8789V22.7896H184.593V25.5605H183.61V22.7896H182.574V21.8789H185.628Z" fill="white"/>
<path d="M189.663 21.8235V25.5768H188.68V23.7554L187.96 24.6109H187.666L186.946 23.7554V25.5768H185.963V21.8235H186.31L187.813 23.4242L189.316 21.8235H189.663Z" fill="white"/>
<path fill-rule="evenodd" clip-rule="evenodd" d="M27.2183 42.0989L27.2033 53.9356L29.7055 53.939L29.7206 42.0469L34.2852 53.0282L36.5957 52.0677L32.0625 41.1619L40.4028 49.5238L42.1744 47.7564L33.7983 39.3589L44.7534 43.9054L45.7122 41.5942L34.756 37.0472H46.6184V34.545H34.7845L45.7226 30.0276L44.7671 27.7148L33.876 32.2129L42.2507 23.9237L40.4908 22.1453L32.0119 30.5373L36.5811 19.5173L34.2695 18.5589L29.7365 29.492L29.7515 17.6565L27.2493 17.6533L27.2342 29.5464L22.6691 18.5643L20.3586 19.5247L24.8914 30.4294L16.5516 22.0684L14.78 23.8355L23.1564 32.2332L12.2012 27.6866L11.2421 29.9977L22.1989 34.545H10.3359V37.0472H22.1707L11.2323 41.5648L12.1874 43.8775L23.0782 39.3797L14.7036 47.6688L16.4638 49.447L24.9422 41.0554L20.3734 52.0748L22.6848 53.0332L27.2183 42.0989Z" fill="white"/>
</g>
<defs>
<clipPath id="clip0_656_1151">
<rect width="200" height="72" fill="white"/>
</clipPath>
</defs>
</svg>
