<svg width="200" height="72" viewBox="0 0 200 72" fill="none" xmlns="http://www.w3.org/2000/svg">
<g opacity="0.6" clip-path="url(#clip0_656_1169)">
<rect width="200" height="72" fill="#191919"/>
<path d="M86.9896 27.4321V50.5774H81.3517V41.0489H72.5813V50.5774H66.9434V27.4321H72.5813V36.499H81.3517V27.4321H86.9896Z" fill="white"/>
<path d="M92.5778 30.2675C91.5886 30.2675 90.7754 29.9818 90.1382 29.4103C89.5226 28.8168 89.2148 28.0914 89.2148 27.2342C89.2148 26.355 89.5226 25.6297 90.1382 25.0581C90.7754 24.4647 91.5886 24.168 92.5778 24.168C93.545 24.168 94.3365 24.4647 94.9516 25.0581C95.5893 25.6297 95.9079 26.355 95.9079 27.2342C95.9079 28.0914 95.5893 28.8168 94.9516 29.4103C94.3365 29.9818 93.545 30.2675 92.5778 30.2675ZM95.3804 32.1798V50.5773H89.7424V32.1798H95.3804Z" fill="white"/>
<path d="M108.401 45.7968V50.5773H105.532C103.488 50.5773 101.894 50.0827 100.752 49.0939C99.6085 48.0826 99.0372 46.4453 99.0372 44.1812V36.8617H96.7952V32.1798H99.0372V27.6958H104.675V32.1798H108.368V36.8617H104.675V44.2471C104.675 44.7968 104.807 45.1921 105.07 45.434C105.334 45.6759 105.774 45.7968 106.39 45.7968H108.401Z" fill="white"/>
<path d="M127.565 41.082C127.565 41.6095 127.532 42.1592 127.466 42.7305H114.707C114.795 43.8736 115.157 44.7527 115.795 45.3683C116.454 45.9617 117.256 46.2587 118.201 46.2587C119.608 46.2587 120.586 45.6648 121.136 44.4779H127.136C126.829 45.6869 126.268 46.775 125.455 47.7421C124.664 48.7092 123.664 49.4678 122.455 50.017C121.246 50.5667 119.894 50.8415 118.399 50.8415C116.597 50.8415 114.992 50.4566 113.586 49.6876C112.179 48.9181 111.08 47.8192 110.288 46.3905C109.497 44.9617 109.102 43.291 109.102 41.3789C109.102 39.4663 109.486 37.796 110.256 36.3673C111.047 34.9385 112.146 33.8395 113.553 33.0702C114.959 32.3009 116.575 31.9163 118.399 31.9163C120.18 31.9163 121.762 32.2899 123.147 33.0373C124.532 33.7846 125.609 34.8506 126.378 36.2354C127.169 37.6202 127.565 39.2357 127.565 41.082ZM121.795 39.5985C121.795 38.6313 121.466 37.8619 120.806 37.2904C120.147 36.719 119.322 36.4332 118.334 36.4332C117.388 36.4332 116.586 36.708 115.926 37.2575C115.289 37.807 114.893 38.5873 114.74 39.5985H121.795Z" fill="white"/>
<path d="M128.1 41.3789C128.1 39.4663 128.484 37.796 129.254 36.3673C130.045 34.9385 131.133 33.8395 132.518 33.0702C133.924 32.3009 135.529 31.9163 137.331 31.9163C139.639 31.9163 141.562 32.5207 143.101 33.7296C144.662 34.9385 145.684 36.642 146.167 38.8401H140.167C139.661 37.4333 138.683 36.7299 137.232 36.7299C136.199 36.7299 135.375 37.1366 134.76 37.9499C134.144 38.7412 133.836 39.8842 133.836 41.3789C133.836 42.8736 134.144 44.0275 134.76 44.8407C135.375 45.6319 136.199 46.0276 137.232 46.0276C138.683 46.0276 139.661 45.3245 140.167 43.9174H146.167C145.684 46.0718 144.662 47.7642 143.101 48.9949C141.54 50.226 139.617 50.8415 137.331 50.8415C135.529 50.8415 133.924 50.4566 132.518 49.6876C131.133 48.9181 130.045 47.8192 129.254 46.3905C128.484 44.9617 128.1 43.291 128.1 41.3789Z" fill="white"/>
<path d="M159.172 31.9821C161.282 31.9821 162.975 32.6854 164.25 34.0921C165.524 35.4769 166.162 37.3892 166.162 39.829V50.5774H160.557V40.5872C160.557 39.3565 160.238 38.4003 159.601 37.7189C158.963 37.0375 158.106 36.6969 157.029 36.6969C155.952 36.6969 155.095 37.0375 154.458 37.7189C153.82 38.4003 153.501 39.3565 153.501 40.5872V50.5774H147.863V26.1792H153.501V34.6527C154.073 33.8394 154.853 33.191 155.842 32.7074C156.831 32.2238 157.941 31.9821 159.172 31.9821Z" fill="white"/>
<path d="M37.752 38.4792V18.4656H44.4246V28.7535C45.5892 28.304 46.8548 28.0575 48.1779 28.0575C53.936 28.0575 58.6038 32.7254 58.6038 38.4835V50.5775H51.9313V38.4835C51.9313 36.4106 50.2508 34.7301 48.1779 34.7301C46.1059 34.7301 44.426 36.4091 44.4246 38.4807C44.4246 38.4816 44.4246 38.4826 44.4246 38.4835V50.5775H37.752V38.4835C37.752 38.4821 37.752 38.4806 37.752 38.4792Z" fill="white"/>
<path d="M51.9316 25.1382V18.4656H58.6041V25.1382H51.9316Z" fill="white"/>
</g>
<defs>
<clipPath id="clip0_656_1169">
<rect width="200" height="72" fill="white"/>
</clipPath>
</defs>
</svg>
