<svg width="200" height="72" viewBox="0 0 200 72" fill="none" xmlns="http://www.w3.org/2000/svg">
<g opacity="0.6" clip-path="url(#clip0_656_1158)">
<rect width="200" height="72" fill="#191919"/>
<path d="M39.85 56.7069H26.3928L39.85 36.3569H53.3073L39.85 56.7069Z" fill="white"/>
<path d="M34.9262 15.3506H48.7115L34.9262 36.3568H21.1407L34.9262 15.3506Z" fill="white"/>
<path d="M80.7608 33.0538C80.7608 34.3016 80.4599 35.4717 79.8581 36.5639C79.2788 37.6556 78.354 38.5359 77.0839 39.2046C75.8358 39.873 74.2537 40.2073 72.3372 40.2073H68.4259V49.1658H63.7462V25.8335H72.3372C74.1422 25.8335 75.6798 26.1455 76.95 26.7695C78.2205 27.3934 79.1673 28.2514 79.7916 29.3434C80.4379 30.4353 80.7608 31.6722 80.7608 33.0538ZM72.1364 36.43C73.429 36.43 74.3872 36.1405 75.0114 35.5607C75.6353 34.9593 75.9472 34.1236 75.9472 33.0538C75.9472 30.7808 74.6771 29.6442 72.1364 29.6442H68.4259V36.43H72.1364Z" fill="white"/>
<path d="M87.4257 33.5218C88.0275 32.5413 88.8073 31.7724 89.7655 31.2153C90.7462 30.6582 91.8604 30.3796 93.1085 30.3796V35.2933H91.8714C90.4008 35.2933 89.2866 35.6387 88.5288 36.3299C87.7935 37.0207 87.4257 38.2239 87.4257 39.9399V49.1658H82.746V30.6471H87.4257V33.5218Z" fill="white"/>
<path d="M103.147 49.4667C101.364 49.4667 99.7598 49.0768 98.3337 48.297C96.9076 47.4947 95.7819 46.3691 94.9576 44.9205C94.1554 43.4719 93.754 41.8008 93.754 39.9064C93.754 38.0124 94.1664 36.3409 94.9911 34.8924C95.8379 33.4438 96.9855 32.3296 98.4341 31.5496C99.8827 30.7473 101.498 30.3462 103.281 30.3462C105.064 30.3462 106.679 30.7473 108.128 31.5496C109.576 32.3296 110.713 33.4438 111.538 34.8924C112.385 36.3409 112.808 38.0124 112.808 39.9064C112.808 41.8008 112.373 43.4719 111.504 44.9205C110.657 46.3691 109.498 47.4947 108.028 48.297C106.579 49.0768 104.952 49.4667 103.147 49.4667ZM103.147 45.3884C103.994 45.3884 104.785 45.1879 105.521 44.787C106.278 44.3636 106.88 43.7394 107.326 42.915C107.771 42.0903 107.994 41.0876 107.994 39.9064C107.994 38.1459 107.526 36.7978 106.59 35.8616C105.677 34.9034 104.551 34.4245 103.214 34.4245C101.877 34.4245 100.752 34.9034 99.8382 35.8616C98.9465 36.7978 98.5011 38.1459 98.5011 39.9064C98.5011 41.6669 98.9355 43.0265 99.8047 43.9847C100.696 44.9205 101.81 45.3884 103.147 45.3884Z" fill="white"/>
<path d="M119.582 45.4551H124.608V49.1656H114.902V22.9585H119.582V45.4551Z" fill="white"/>
<path d="M128.24 28.4406C127.416 28.4406 126.725 28.1843 126.168 27.6718C125.633 27.1369 125.365 26.4795 125.365 25.6996C125.365 24.9196 125.633 24.2733 126.168 23.7608C126.725 23.2259 127.416 22.9585 128.24 22.9585C129.065 22.9585 129.744 23.2259 130.279 23.7608C130.836 24.2733 131.115 24.9196 131.115 25.6996C131.115 26.4795 130.836 27.1369 130.279 27.6718C129.744 28.1843 129.065 28.4406 128.24 28.4406ZM130.546 30.6468V49.1656H125.867V30.6468H130.546Z" fill="white"/>
<path d="M144.095 30.3796C146.3 30.3796 148.083 31.0816 149.443 32.4856C150.802 33.8672 151.482 35.8061 151.482 38.3019V49.1658H146.802V38.9372C146.802 37.4662 146.434 36.3409 145.699 35.5607C144.963 34.7585 143.961 34.3575 142.69 34.3575C141.398 34.3575 140.373 34.7585 139.615 35.5607C138.88 36.3409 138.512 37.4662 138.512 38.9372V49.1658H133.832V30.6471H138.512V32.9536C139.136 32.1513 139.927 31.5273 140.885 31.0816C141.866 30.6136 142.935 30.3796 144.095 30.3796Z" fill="white"/>
<path d="M171.809 39.5055C171.809 40.1739 171.765 40.7757 171.676 41.3105H158.138C158.249 42.6476 158.717 43.6949 159.541 44.4526C160.366 45.2104 161.38 45.5893 162.584 45.5893C164.322 45.5893 165.559 44.8425 166.294 43.3495H171.342C170.807 45.1324 169.781 46.603 168.266 47.7621C166.751 48.8984 164.89 49.4667 162.684 49.4667C160.901 49.4667 159.296 49.0768 157.87 48.297C156.466 47.4947 155.363 46.3691 154.561 44.9205C153.781 43.4719 153.391 41.8008 153.391 39.9064C153.391 37.99 153.781 36.3075 154.561 34.8589C155.341 33.4104 156.433 32.2961 157.837 31.5162C159.241 30.7362 160.857 30.3462 162.684 30.3462C164.444 30.3462 166.016 30.725 167.397 31.4827C168.801 32.2404 169.882 33.3212 170.64 34.7254C171.419 36.107 171.809 37.7001 171.809 39.5055ZM166.962 38.1684C166.94 36.9648 166.505 36.0066 165.659 35.2933C164.812 34.558 163.776 34.1905 162.55 34.1905C161.391 34.1905 160.411 34.547 159.608 35.2602C158.829 35.951 158.349 36.9203 158.171 38.1684H166.962Z" fill="white"/>
</g>
<defs>
<clipPath id="clip0_656_1158">
<rect width="200" height="72" fill="white"/>
</clipPath>
</defs>
</svg>
