<svg width="200" height="72" viewBox="0 0 200 72" fill="none" xmlns="http://www.w3.org/2000/svg">
<g opacity="0.6" clip-path="url(#clip0_656_1142)">
<rect width="200" height="72" fill="#191919"/>
<path d="M81.9805 25.6494H86.2922V48.8664H81.9805V25.6494Z" fill="white"/>
<path d="M100.565 30.9563C102.799 30.9563 104.59 31.6086 105.939 32.9132C107.287 34.2178 107.962 36.1525 107.962 38.7174V48.8665H103.816V39.2483C103.816 37.7003 103.451 36.5395 102.721 35.7656C101.992 34.9696 100.952 34.5715 99.6037 34.5715C98.0778 34.5715 96.8726 35.0359 95.9884 35.9646C95.1039 36.8712 94.6614 38.187 94.6614 39.9114V48.8665H90.5156V31.1553H94.4625V33.4439C95.1481 32.6257 96.0105 32.0066 97.0498 31.5865C98.0891 31.1664 99.2609 30.9563 100.565 30.9563Z" fill="white"/>
<path d="M127.823 31.1553L120.228 48.8665H115.949L108.354 31.1553H112.666L118.171 44.2895L123.843 31.1553H127.823Z" fill="white"/>
<path d="M144.92 40.1104C144.92 40.3981 144.898 40.8068 144.854 41.3377H130.956C131.2 42.6422 131.83 43.6815 132.847 44.4555C133.886 45.2074 135.169 45.5832 136.694 45.5832C138.64 45.5832 140.243 44.9418 141.504 43.6594L143.726 46.2133C142.93 47.1642 141.924 47.8827 140.708 48.369C139.491 48.8557 138.121 49.0988 136.595 49.0988C134.649 49.0988 132.936 48.7118 131.454 47.9382C129.973 47.1642 128.823 46.0915 128.005 44.7207C127.208 43.3278 126.811 41.7577 126.811 40.0111C126.811 38.2862 127.198 36.7385 127.972 35.3676C128.767 33.9745 129.862 32.8911 131.255 32.1172C132.648 31.3433 134.218 30.9563 135.965 30.9563C137.689 30.9563 139.226 31.3433 140.575 32.1172C141.946 32.869 143.007 33.9414 143.759 35.3344C144.533 36.7053 144.92 38.2975 144.92 40.1104ZM135.965 34.2731C134.638 34.2731 133.51 34.671 132.582 35.4671C131.675 36.241 131.122 37.2803 130.923 38.5848H140.973C140.796 37.3024 140.254 36.2631 139.348 35.4671C138.441 34.671 137.314 34.2731 135.965 34.2731Z" fill="white"/>
<path d="M151.191 33.7423C152.385 31.885 154.486 31.2879 157.493 31.2879V34.6047C157.139 34.5383 156.819 34.5052 156.531 34.5052C154.917 34.5052 153.657 35.2791 152.75 36.2299C151.844 37.1585 151.39 38.5072 151.39 40.2763V48.8665H147.244V31.1553H151.191V33.7423Z" fill="white"/>
<path d="M171.48 47.9047C170.994 48.3026 170.397 48.6012 169.689 48.8001C169.004 48.9995 168.274 49.0987 167.5 49.0987C165.554 49.0987 164.051 48.5903 162.989 47.5732C161.928 46.556 161.398 45.0743 161.398 43.1288V34.6046H158.479V31.2879H161.398V27.2415H165.543V31.2879H170.286V34.6046H165.543V43.0291C165.543 43.8916 165.754 44.5546 166.174 45.0192C166.594 45.4613 167.202 45.6827 167.998 45.6827C168.926 45.6827 169.7 45.4392 170.319 44.9529L171.48 47.9047Z" fill="white"/>
<path fill-rule="evenodd" clip-rule="evenodd" d="M71.1376 37.3266C71.1376 49.0734 61.6154 58.5957 49.8686 58.5957C38.1221 58.5957 28.5996 49.0734 28.5996 37.3266C28.5996 25.5801 38.1221 16.0576 49.8686 16.0576C61.6154 16.0576 71.1376 25.5801 71.1376 37.3266ZM64.4533 37.3266C64.4533 45.3813 57.9237 51.9109 49.869 51.9109C49.3106 51.9109 48.7593 51.8797 48.2172 51.8188C55.547 51.0485 61.2596 44.8488 61.2596 37.3145C61.2596 29.8184 55.6038 23.643 48.3268 22.8228C48.8336 22.7695 49.3482 22.7422 49.869 22.7422C57.9237 22.7422 64.4533 29.2719 64.4533 37.3266ZM45.159 47.5996C49.9658 46.7505 53.622 42.4742 53.622 37.3266C53.622 32.1789 49.9658 27.9026 45.159 27.0538C45.7407 26.9531 46.3388 26.9006 46.9493 26.9006C52.7074 26.9006 57.3753 31.5685 57.3753 37.3266C57.3753 43.0847 52.7074 47.7526 46.9493 47.7526C46.3388 47.7526 45.7407 47.7001 45.159 47.5996Z" fill="white"/>
</g>
<defs>
<clipPath id="clip0_656_1142">
<rect width="200" height="72" fill="white"/>
</clipPath>
</defs>
</svg>
