<svg width="438" height="294" viewBox="0 0 438 294" fill="none" xmlns="http://www.w3.org/2000/svg">
<path d="M33.5248 0.5C29.1135 0.5 25.4353 3.87459 25.0562 8.26958L1.29785 283.727C0.852077 288.895 5.09963 293.254 10.2778 292.942L429.511 267.674C433.999 267.404 437.5 263.686 437.5 259.19V9C437.5 4.30558 433.694 0.5 429 0.5H33.5248Z" fill="#A2DFF5" stroke="#191919"/>
<rect x="24.4999" y="0.5" width="413" height="269" rx="8.5" fill="white" stroke="#191919"/>
<path d="M58.9719 46H61.9059L57.0819 33.076H54.0939L49.2339 46H51.9879L52.9779 43.228H57.9999L58.9719 46ZM55.5159 36.064L57.2439 41.05H53.7519L55.5159 36.064ZM65.7663 40.762C65.7663 39.214 66.6123 38.422 67.6023 38.422C68.7363 38.422 69.2943 39.214 69.2943 40.636V46H71.7783V39.79C71.7783 37.468 70.4463 36.208 68.5203 36.208C67.2603 36.208 66.2703 36.802 65.5683 37.756V36.388H63.2643V46H65.7663V40.762ZM79.6582 46H81.6922V39.952C81.6922 37.594 80.2162 36.208 77.6962 36.208C75.3742 36.208 73.7722 37.648 73.6282 39.862H75.8782C75.9682 38.782 76.6162 38.152 77.6962 38.152C78.7402 38.152 79.3522 38.782 79.3522 39.862V40.438C78.7582 40.366 78.2902 40.33 77.7502 40.33C74.9422 40.33 73.4302 41.338 73.4302 43.21C73.4302 45.01 74.7622 46.18 76.7602 46.18C78.0742 46.18 79.0282 45.712 79.6582 44.812V46ZM75.7882 43.138C75.7882 42.274 76.4902 41.824 77.9122 41.824C78.3442 41.824 78.7582 41.86 79.3522 41.95V42.634C79.3522 43.75 78.5782 44.452 77.3002 44.452C76.3642 44.452 75.7882 43.948 75.7882 43.138ZM86.3683 46V33.076H83.8483V46H86.3683ZM97.27 36.388H94.768L92.572 42.976L90.16 36.388H87.46L91.24 45.892L89.872 49.474H92.59L97.27 36.388ZM104.695 43.57C104.335 43.768 103.903 43.876 103.435 43.876C102.535 43.876 102.031 43.426 102.031 42.31V38.53H104.785V36.388H102.031V33.544H99.5474V36.388H97.6034V38.53H99.5474V42.886C99.5474 45.046 100.789 46.18 102.769 46.18C103.507 46.18 104.083 46.054 104.695 45.748V43.57ZM109.211 34.156C109.211 33.274 108.527 32.644 107.537 32.644C106.565 32.644 105.881 33.274 105.881 34.156C105.881 35.002 106.565 35.632 107.537 35.632C108.527 35.632 109.211 35.002 109.211 34.156ZM108.815 46V36.388H106.313V46H108.815ZM115.092 46.18C117.666 46.18 119.466 44.542 119.754 41.896H117.126C116.982 43.21 116.244 43.966 115.092 43.966C113.778 43.966 112.968 42.922 112.968 41.194C112.968 39.484 113.796 38.422 115.092 38.422C116.226 38.422 117 39.214 117.126 40.492H119.754C119.448 37.9 117.594 36.208 115.092 36.208C112.392 36.208 110.412 38.314 110.412 41.194C110.412 44.128 112.32 46.18 115.092 46.18ZM129.478 42.922C129.478 41.536 128.524 40.672 126.652 40.312L124.798 39.97C123.934 39.808 123.538 39.574 123.538 38.998C123.538 38.386 124.15 38.044 125.068 38.044C126.13 38.044 126.832 38.62 126.922 39.556H129.316C129.136 37.486 127.48 36.208 125.068 36.208C122.674 36.208 121.144 37.45 121.144 39.232C121.144 40.726 122.188 41.68 123.916 41.986L125.644 42.31C126.562 42.49 126.958 42.742 126.958 43.354C126.958 44.038 126.22 44.344 125.248 44.344C124.006 44.344 123.16 43.714 123.142 42.724H120.748C120.946 44.866 122.476 46.18 125.212 46.18C127.948 46.18 129.478 44.938 129.478 42.922Z" fill="#191919"/>
<path d="M296.979 44C299.655 44 301.371 42.152 301.371 39.644C301.371 37.136 299.715 35.384 296.979 35.384H293.919V44H296.979ZM295.743 36.956H296.883C298.599 36.956 299.499 37.928 299.499 39.644C299.499 41.432 298.599 42.428 296.883 42.428H295.743V36.956Z" fill="#191919" fill-opacity="0.4"/>
<path d="M323.5 44H325.348L327.568 35.384H325.78L324.376 41.252L322.84 35.384H320.98L319.396 41.228L318.004 35.384H316.228L318.436 44H320.284L321.892 37.976L323.5 44Z" fill="#191919" fill-opacity="0.4"/>
<path d="M347.124 44H348.648L350.928 38.228V44H352.584V35.384H350.4L347.892 41.768L345.396 35.384H343.212V44H344.868V38.276L347.124 44Z" fill="#191919" fill-opacity="0.4"/>
<path d="M373.292 40.76L376.364 35.384H374.528L372.44 39.092L370.388 35.384H368.42L371.468 40.76V44H373.292V40.76Z" fill="#191919" fill-opacity="0.4"/>
<path d="M396.835 44H398.791L395.575 35.384H393.583L390.343 44H392.179L392.839 42.152H396.187L396.835 44ZM394.531 37.376L395.683 40.7H393.355L394.531 37.376ZM405.409 44V42.356H401.665V35.384H399.841V44H405.409ZM412.229 44V42.356H408.485V35.384H406.661V44H412.229Z" fill="#191919"/>
<path d="M390.187 45.26H412.589V45.86H390.187V45.26Z" fill="#191919"/>
<line x1="60.5516" y1="79" x2="60.5516" y2="215" stroke="#F1F1F1" stroke-width="1.10344"/>
<path d="M55.4449 231.384H54.5449V237.216C54.5449 238.692 53.7409 239.376 52.5529 239.376C51.4369 239.376 50.6569 238.68 50.5849 237.444H49.6849C49.7689 239.124 50.8729 240.18 52.5529 240.18C54.3169 240.18 55.4449 239.112 55.4449 237.144V231.384ZM61.1593 240H61.8793V235.884C61.8793 234.42 61.0153 233.556 59.5393 233.556C58.0993 233.556 57.1273 234.492 57.0913 235.896H57.8593C57.8713 234.864 58.5193 234.228 59.5513 234.228C60.5113 234.228 61.0753 234.852 61.0753 235.908V236.436C60.4513 236.388 60.1633 236.364 59.7793 236.364C57.8593 236.364 56.8753 237.012 56.8753 238.248C56.8753 239.388 57.7273 240.12 59.0353 240.12C60.0193 240.12 60.7873 239.64 61.1593 238.848V240ZM57.6793 238.224C57.6793 237.348 58.3753 236.928 59.8153 236.928C60.1633 236.928 60.5353 236.94 61.0753 236.988V237.552C61.0753 238.74 60.3313 239.508 59.1553 239.508C58.2673 239.508 57.6793 238.992 57.6793 238.224ZM64.4863 236.316C64.4863 235.14 65.2783 234.288 66.2623 234.288C67.2943 234.288 67.8463 234.972 67.8463 236.184V240H68.6863V235.896C68.6863 234.396 67.8343 233.556 66.5143 233.556C65.6023 233.556 64.8343 234.084 64.4263 234.864V233.676H63.6463V240H64.4863V236.316Z" fill="#191919" fill-opacity="0.4"/>
<line x1="116.552" y1="79" x2="116.552" y2="215" stroke="#F1F1F1" stroke-width="1.10344"/>
<path d="M107.905 240V236.304H111.385V235.524H107.905V232.164H111.949V231.384H107.005V240H107.905ZM115.558 240.12C117.01 240.12 118.078 239.268 118.366 237.864H117.538C117.334 238.872 116.602 239.46 115.546 239.46C114.31 239.46 113.518 238.536 113.446 237.036H118.342C118.486 235.008 117.31 233.556 115.51 233.556C113.83 233.556 112.606 234.936 112.606 236.784C112.606 238.788 113.782 240.12 115.558 240.12ZM115.498 234.204C116.662 234.204 117.394 235.044 117.466 236.46H113.446C113.554 235.08 114.358 234.204 115.498 234.204ZM125.526 236.832C125.526 234.888 124.434 233.556 122.742 233.556C121.782 233.556 120.978 234.084 120.57 235.008V231.384H119.73V240H120.51V238.668C120.954 239.592 121.77 240.12 122.742 240.12C124.434 240.12 125.526 238.776 125.526 236.832ZM124.674 236.832C124.674 238.44 123.846 239.388 122.61 239.388C121.398 239.388 120.558 238.392 120.558 236.808C120.558 235.212 121.422 234.288 122.61 234.288C123.846 234.288 124.674 235.224 124.674 236.832Z" fill="#191919" fill-opacity="0.4"/>
<line x1="173.552" y1="79" x2="173.552" y2="215" stroke="#F1F1F1" stroke-width="1.10344"/>
<path d="M167.303 240H168.095L171.239 232.692V240H172.067V231.384H170.915L167.699 238.896L164.507 231.384H163.343V240H164.183V232.692L167.303 240ZM177.835 240H178.555V235.884C178.555 234.42 177.691 233.556 176.215 233.556C174.775 233.556 173.803 234.492 173.767 235.896H174.535C174.547 234.864 175.195 234.228 176.227 234.228C177.187 234.228 177.751 234.852 177.751 235.908V236.436C177.127 236.388 176.839 236.364 176.455 236.364C174.535 236.364 173.551 237.012 173.551 238.248C173.551 239.388 174.403 240.12 175.711 240.12C176.695 240.12 177.463 239.64 177.835 238.848V240ZM174.355 238.224C174.355 237.348 175.051 236.928 176.491 236.928C176.839 236.928 177.211 236.94 177.751 236.988V237.552C177.751 238.74 177.007 239.508 175.831 239.508C174.943 239.508 174.355 238.992 174.355 238.224ZM181.162 236.616C181.162 235.236 182.182 234.408 183.514 234.456V233.58C182.47 233.58 181.534 234.18 181.102 235.116V233.676H180.322V240H181.162V236.616Z" fill="#191919" fill-opacity="0.4"/>
<line x1="230.552" y1="79" x2="230.552" y2="215" stroke="#F1F1F1" stroke-width="1.10344"/>
<path d="M227.2 240H228.148L224.812 231.384H223.828L220.48 240H221.368L222.28 237.612H226.3L227.2 240ZM224.296 232.344L226.012 236.88H222.556L224.296 232.344ZM235.184 236.832C235.184 234.9 234.092 233.556 232.412 233.556C231.44 233.556 230.6 234.108 230.168 235.044V233.676H229.388V242.316H230.228V238.704C230.66 239.604 231.464 240.12 232.412 240.12C234.092 240.12 235.184 238.788 235.184 236.832ZM234.332 236.832C234.332 238.452 233.504 239.388 232.268 239.388C231.068 239.388 230.216 238.404 230.216 236.832C230.216 235.224 231.092 234.288 232.268 234.288C233.504 234.288 234.332 235.236 234.332 236.832ZM237.377 236.616C237.377 235.236 238.397 234.408 239.729 234.456V233.58C238.685 233.58 237.749 234.18 237.317 235.116V233.676H236.537V240H237.377V236.616Z" fill="#191919" fill-opacity="0.4"/>
<line x1="287.552" y1="79" x2="287.552" y2="215" stroke="#F1F1F1" stroke-width="1.10344"/>
<path d="M282.287 231.384H281.387V237.216C281.387 238.692 280.583 239.376 279.395 239.376C278.279 239.376 277.499 238.68 277.427 237.444H276.527C276.611 239.124 277.715 240.18 279.395 240.18C281.159 240.18 282.287 239.112 282.287 237.144V231.384ZM288.157 237.444C288.157 238.572 287.425 239.388 286.417 239.388C285.529 239.388 284.893 238.896 284.893 237.612V233.676H284.053V237.792C284.053 239.388 284.905 240.12 286.189 240.12C287.113 240.12 287.881 239.592 288.205 238.86V240H288.985V233.676H288.157V237.444ZM291.644 236.316C291.644 235.14 292.436 234.288 293.42 234.288C294.452 234.288 295.004 234.972 295.004 236.184V240H295.844V235.896C295.844 234.396 294.992 233.556 293.672 233.556C292.76 233.556 291.992 234.084 291.584 234.864V233.676H290.804V240H291.644V236.316Z" fill="#191919" fill-opacity="0.4"/>
<line x1="345.552" y1="79" x2="345.552" y2="215" stroke="#F1F1F1" stroke-width="1.10344"/>
<path d="M340.25 237.612C340.25 236.316 339.422 235.716 337.97 235.416L336.878 235.188C335.918 234.996 335.054 234.684 335.054 233.664C335.054 232.8 335.762 231.996 337.082 231.996C338.318 231.996 339.158 232.824 339.218 233.964H340.142C340.046 232.32 338.75 231.264 337.07 231.264C335.354 231.264 334.142 232.332 334.142 233.712C334.142 235.212 335.342 235.74 336.482 235.968L337.574 236.184C338.798 236.436 339.302 236.844 339.302 237.732C339.302 238.764 338.342 239.388 337.118 239.388C335.63 239.388 334.862 238.596 334.778 237.372H333.866C333.95 239.004 335.126 240.12 337.13 240.12C339.134 240.12 340.25 238.98 340.25 237.612ZM344.349 240.12C345.801 240.12 346.869 239.268 347.157 237.864H346.329C346.125 238.872 345.393 239.46 344.337 239.46C343.101 239.46 342.309 238.536 342.237 237.036H347.133C347.277 235.008 346.101 233.556 344.301 233.556C342.621 233.556 341.397 234.936 341.397 236.784C341.397 238.788 342.573 240.12 344.349 240.12ZM344.289 234.204C345.453 234.204 346.185 235.044 346.257 236.46H342.237C342.345 235.08 343.149 234.204 344.289 234.204ZM354.317 236.832C354.317 234.9 353.225 233.556 351.545 233.556C350.573 233.556 349.733 234.108 349.301 235.044V233.676H348.521V242.316H349.361V238.704C349.793 239.604 350.597 240.12 351.545 240.12C353.225 240.12 354.317 238.788 354.317 236.832ZM353.465 236.832C353.465 238.452 352.637 239.388 351.401 239.388C350.201 239.388 349.349 238.404 349.349 236.832C349.349 235.224 350.225 234.288 351.401 234.288C352.637 234.288 353.465 235.236 353.465 236.832Z" fill="#191919" fill-opacity="0.4"/>
<line x1="403.552" y1="79" x2="403.552" y2="215" stroke="#F1F1F1" stroke-width="1.10344"/>
<path d="M396.303 240H397.095L400.239 232.692V240H401.067V231.384H399.915L396.699 238.896L393.507 231.384H392.343V240H393.183V232.692L396.303 240ZM406.835 240H407.555V235.884C407.555 234.42 406.691 233.556 405.215 233.556C403.775 233.556 402.803 234.492 402.767 235.896H403.535C403.547 234.864 404.195 234.228 405.227 234.228C406.187 234.228 406.751 234.852 406.751 235.908V236.436C406.127 236.388 405.839 236.364 405.455 236.364C403.535 236.364 402.551 237.012 402.551 238.248C402.551 239.388 403.403 240.12 404.711 240.12C405.695 240.12 406.463 239.64 406.835 238.848V240ZM403.355 238.224C403.355 237.348 404.051 236.928 405.491 236.928C405.839 236.928 406.211 236.94 406.751 236.988V237.552C406.751 238.74 406.007 239.508 404.831 239.508C403.943 239.508 403.355 238.992 403.355 238.224ZM410.162 236.616C410.162 235.236 411.182 234.408 412.514 234.456V233.58C411.47 233.58 410.534 234.18 410.102 235.116V233.676H409.322V240H410.162V236.616Z" fill="#191919" fill-opacity="0.4"/>
<path d="M47.9305 219.948C47.3496 220.539 47.3574 221.488 47.948 222.069C48.5386 222.65 49.4883 222.642 50.0693 222.052L47.9305 219.948ZM65.881 199.547L65.2375 198.192L65.881 199.547ZM78.5419 196.482L78.189 195.024L78.5419 196.482ZM103.864 190.353L105.071 189.462L105.02 189.394L104.962 189.331L103.864 190.353ZM128.13 184.223L126.696 183.784L126.671 183.865L126.656 183.948L128.13 184.223ZM140.791 171.964L139.658 170.982L140.791 171.964ZM161.365 133.655L161.549 132.166L161.365 133.655ZM180.884 163.791L181.263 162.34L180.884 163.791ZM208.843 155.108L208.634 153.623L208.843 155.108ZM248.409 158.173L247.034 157.572L246.95 157.765L246.922 157.973L248.409 158.173ZM262.652 148.468L262.026 147.104L262.652 148.468ZM302.217 158.173L301.657 156.781L302.217 158.173ZM339.672 105.561L339.822 107.054L339.672 105.561ZM367.632 117.309L367.922 118.781L367.632 117.309ZM413.542 80.3988C414.314 80.0996 414.698 79.2308 414.399 78.4583C414.099 77.6857 413.231 77.302 412.458 77.6012L413.542 80.3988ZM50.0693 222.052C51.1215 220.982 52.0993 219.291 53.0667 217.507C54.0761 215.644 55.127 213.572 56.3887 211.435C58.9121 207.16 62.0624 203.021 66.5246 200.902L65.2375 198.192C59.9336 200.711 56.4017 205.511 53.8053 209.91C52.5071 212.109 51.3886 214.307 50.4291 216.077C49.4275 217.925 48.6367 219.23 47.9305 219.948L50.0693 222.052ZM66.5246 200.902C68.6491 199.893 70.4358 199.457 72.3312 199.126C74.1971 198.8 76.3632 198.553 78.8948 197.94L78.189 195.024C75.7762 195.608 73.8997 195.807 71.8152 196.171C69.7601 196.529 67.6886 197.028 65.2375 198.192L66.5246 200.902ZM78.8948 197.94C81.7091 197.259 84.0318 195.629 86.0357 193.936C87.0378 193.09 88.0035 192.189 88.9056 191.367C89.8233 190.53 90.6842 189.766 91.5407 189.12C93.264 187.822 94.7723 187.157 96.3597 187.296C97.9636 187.437 100.031 188.433 102.765 191.374L104.962 189.331C101.999 186.143 99.2885 184.541 96.6214 184.308C93.9378 184.073 91.6821 185.258 89.7353 186.725C88.7569 187.462 87.8062 188.309 86.8844 189.15C85.9471 190.004 85.0452 190.846 84.1 191.645C82.2094 193.241 80.3191 194.508 78.189 195.024L78.8948 197.94ZM102.657 191.243C104.254 193.408 106.337 195.728 108.661 197.59C110.963 199.435 113.633 200.938 116.393 201.254C119.269 201.584 122.07 200.601 124.394 197.835C126.648 195.152 128.424 190.836 129.605 184.498L126.656 183.948C125.515 190.073 123.867 193.798 122.097 195.905C120.398 197.928 118.576 198.485 116.735 198.274C114.778 198.049 112.637 196.932 110.537 195.249C108.459 193.584 106.551 191.468 105.071 189.462L102.657 191.243ZM129.565 184.662C130.107 182.89 131.736 181.386 134.209 179.509C136.552 177.732 139.545 175.692 141.925 172.946L139.658 170.982C137.542 173.423 134.909 175.213 132.396 177.119C130.014 178.927 127.56 180.959 126.696 183.784L129.565 184.662ZM141.925 172.946C144.947 169.459 146.626 165.054 147.754 160.597C148.869 156.186 149.504 151.434 150.271 147.449C151.065 143.325 152.003 140 153.636 137.824C154.426 136.773 155.364 136.012 156.529 135.554C157.705 135.092 159.209 134.9 161.181 135.143L161.549 132.166C159.202 131.876 157.175 132.077 155.432 132.762C153.679 133.451 152.312 134.592 151.237 136.023C149.143 138.812 148.116 142.776 147.325 146.882C146.508 151.126 145.937 155.544 144.845 159.861C143.765 164.131 142.233 168.01 139.658 170.982L141.925 172.946ZM161.181 135.143C164.179 135.514 165.927 137.037 167.151 139.308C168.439 141.698 169.101 144.835 169.796 148.318C170.469 151.692 171.173 155.387 172.639 158.45C174.144 161.596 176.509 164.198 180.505 165.243L181.263 162.34C178.333 161.574 176.574 159.724 175.345 157.155C174.076 154.502 173.434 151.219 172.738 147.731C172.064 144.353 171.333 140.744 169.792 137.884C168.186 134.906 165.667 132.675 161.549 132.166L161.181 135.143ZM180.505 165.243C186.618 166.841 191.21 164.83 195.49 162.446C199.825 160.032 203.732 157.345 209.053 156.593L208.634 153.623C202.608 154.474 198.07 157.575 194.03 159.825C189.934 162.106 186.22 163.636 181.263 162.34L180.505 165.243ZM209.053 156.593C210.407 156.402 211.938 156.925 213.716 158.263C215.486 159.596 217.313 161.598 219.188 163.988C221.057 166.37 222.909 169.053 224.756 171.712C226.59 174.351 228.424 176.974 230.211 179.152C231.975 181.301 233.818 183.177 235.71 184.176C236.678 184.688 237.73 185.008 238.833 184.961C239.957 184.912 241.004 184.487 241.945 183.724C243.749 182.262 245.208 179.529 246.466 175.532C247.744 171.475 248.888 165.868 249.895 158.372L246.922 157.973C245.925 165.393 244.808 170.808 243.605 174.631C242.382 178.513 241.139 180.515 240.056 181.393C239.554 181.8 239.111 181.946 238.704 181.963C238.275 181.982 237.754 181.863 237.111 181.523C235.781 180.821 234.253 179.348 232.53 177.249C230.832 175.18 229.066 172.658 227.22 170.001C225.389 167.365 223.482 164.602 221.549 162.137C219.622 159.681 217.604 157.435 215.52 155.866C213.445 154.304 211.114 153.272 208.634 153.623L209.053 156.593ZM249.783 158.773C250.56 156.995 252.254 155.475 254.719 154.006C257.179 152.54 260.146 151.268 263.278 149.831L262.026 147.104C259.011 148.488 255.824 149.855 253.183 151.429C250.546 153.001 248.191 154.924 247.034 157.572L249.783 158.773ZM263.278 149.831C265.956 148.602 268.782 148.739 271.865 149.714C274.987 150.702 278.203 152.493 281.596 154.404C284.925 156.279 288.428 158.272 291.921 159.444C295.446 160.626 299.129 161.033 302.777 159.564L301.657 156.781C298.907 157.888 296.012 157.652 292.875 156.599C289.706 155.536 286.466 153.704 283.068 151.79C279.735 149.913 276.242 147.952 272.77 146.854C269.26 145.743 265.61 145.46 262.026 147.104L263.278 149.831ZM302.777 159.564C304.877 158.719 306.357 157.395 307.316 155.711C308.256 154.058 308.642 152.152 308.739 150.197C308.93 146.359 308.005 141.804 307.389 137.766C306.744 133.54 306.437 129.907 307.427 127.287C307.896 126.046 308.655 125.047 309.854 124.309C311.081 123.554 312.868 123.014 315.475 122.894L315.337 119.897C312.404 120.032 310.075 120.652 308.283 121.754C306.464 122.872 305.301 124.426 304.621 126.227C303.312 129.692 303.795 134.102 304.423 138.218C305.08 142.521 305.913 146.607 305.743 150.048C305.659 151.733 305.334 153.127 304.708 154.227C304.101 155.295 303.159 156.176 301.657 156.781L302.777 159.564ZM315.475 122.894C321.158 122.632 325.002 121.553 327.713 119.939C330.462 118.303 331.905 116.201 332.922 114.202C333.408 113.247 333.832 112.236 334.204 111.428C334.596 110.576 334.963 109.863 335.407 109.262C336.216 108.167 337.373 107.299 339.822 107.054L339.523 104.069C336.288 104.392 334.339 105.659 332.994 107.48C332.361 108.337 331.89 109.278 331.478 110.175C331.045 111.117 330.7 111.952 330.248 112.842C329.389 114.531 328.281 116.11 326.179 117.361C324.039 118.635 320.732 119.649 315.337 119.897L315.475 122.894ZM339.822 107.054C345.049 106.531 348.995 109.529 353.294 112.93C357.368 116.153 361.967 119.955 367.922 118.781L367.342 115.838C362.985 116.697 359.524 114.033 355.156 110.577C351.013 107.3 346.135 103.407 339.523 104.069L339.822 107.054ZM367.922 118.781C369.721 118.426 371.104 117.582 372.132 116.374C373.134 115.196 373.737 113.745 374.131 112.25C374.526 110.754 374.735 109.12 374.891 107.517C375.053 105.847 375.149 104.327 375.325 102.749C375.679 99.5797 376.282 97.2096 377.675 95.8669C378.93 94.6571 381.279 93.9083 386.228 95.2599L387.018 92.3659C381.681 90.9082 377.985 91.4012 375.593 93.707C373.339 95.8799 372.692 99.2992 372.343 102.416C372.169 103.981 372.051 105.727 371.905 107.227C371.753 108.792 371.561 110.23 371.23 111.484C370.899 112.741 370.451 113.72 369.847 114.43C369.269 115.11 368.491 115.611 367.342 115.838L367.922 118.781ZM386.228 95.2599C388.835 95.9719 390.878 96.4058 392.474 96.6106C394.041 96.8118 395.304 96.8102 396.28 96.5457C397.34 96.2587 398.16 95.6228 398.504 94.6085C398.795 93.7478 398.645 92.8623 398.502 92.2552C398.424 91.926 398.327 91.6005 398.24 91.3134C398.149 91.0114 398.07 90.7597 398.004 90.5139C397.938 90.2706 397.899 90.0856 397.883 89.9429C397.866 89.7965 397.88 89.7568 397.874 89.7823C397.862 89.8307 397.821 89.9276 397.733 90.0077C397.658 90.0765 397.629 90.0584 397.754 90.0289C398.053 89.959 398.734 89.9343 400.067 90.1801L400.611 87.2299C399.174 86.965 397.992 86.8924 397.071 87.1078C396.587 87.221 396.109 87.4288 395.712 87.7907C395.303 88.1639 395.068 88.6209 394.957 89.0803C394.76 89.899 394.959 90.7468 395.107 91.2957C395.189 91.5997 395.288 91.9161 395.37 92.1845C395.456 92.4678 395.528 92.7149 395.582 92.9444C395.636 93.1748 395.663 93.3493 395.669 93.4808C395.676 93.612 395.659 93.6552 395.662 93.6459C395.709 93.5075 395.821 93.562 395.496 93.6501C395.087 93.7607 394.289 93.819 392.856 93.635C391.451 93.4548 389.555 93.0587 387.018 92.3659L386.228 95.2599ZM400.067 90.1801C402.98 90.7174 405.149 90.5709 406.786 89.7296C408.465 88.8673 409.288 87.4274 409.835 86.1148C410.101 85.4749 410.335 84.7791 410.545 84.1938C410.766 83.578 410.979 83.0296 411.239 82.5322C411.733 81.585 412.379 80.8491 413.542 80.3988L412.458 77.6012C410.456 78.3768 409.321 79.7224 408.579 81.144C408.22 81.831 407.951 82.5388 407.721 83.1801C407.48 83.8517 407.293 84.4137 407.065 84.9615C406.623 86.024 406.16 86.6784 405.415 87.0612C404.629 87.4649 403.237 87.7143 400.611 87.2299L400.067 90.1801Z" fill="#FF9900"/>
<circle cx="157.474" cy="134.365" r="5.78832" fill="#191919" stroke="white" stroke-width="2"/>
<rect x="120" y="100" width="71.5302" height="24.742" rx="12.371" fill="#191919"/>
<path d="M133.712 118.701V105.793H134.79V118.701H133.712ZM130.618 109.993C130.618 109.396 130.772 108.868 131.08 108.411C131.388 107.954 131.813 107.599 132.354 107.347C132.905 107.086 133.539 106.955 134.258 106.955C134.949 106.955 135.546 107.076 136.05 107.319C136.563 107.562 136.96 107.907 137.24 108.355C137.529 108.803 137.683 109.335 137.702 109.951H135.966C135.947 109.484 135.784 109.125 135.476 108.873C135.177 108.621 134.762 108.495 134.23 108.495C133.661 108.495 133.208 108.626 132.872 108.887C132.536 109.139 132.368 109.489 132.368 109.937C132.368 110.301 132.471 110.595 132.676 110.819C132.881 111.043 133.208 111.206 133.656 111.309L135.266 111.673C136.162 111.869 136.82 112.191 137.24 112.639C137.66 113.078 137.87 113.67 137.87 114.417C137.87 115.042 137.716 115.593 137.408 116.069C137.1 116.545 136.661 116.914 136.092 117.175C135.532 117.427 134.874 117.553 134.118 117.553C133.399 117.553 132.769 117.432 132.228 117.189C131.687 116.937 131.262 116.587 130.954 116.139C130.655 115.691 130.497 115.164 130.478 114.557H132.27C132.279 115.014 132.447 115.369 132.774 115.621C133.101 115.873 133.553 115.999 134.132 115.999C134.748 115.999 135.233 115.873 135.588 115.621C135.952 115.36 136.134 115.014 136.134 114.585C136.134 113.876 135.719 113.428 134.888 113.241L133.264 112.891C132.387 112.704 131.724 112.368 131.276 111.883C130.837 111.388 130.618 110.758 130.618 109.993ZM141.073 108.747H138.833V107.137H142.781V117.371H141.073V108.747ZM144.537 112.275C144.537 111.211 144.715 110.282 145.069 109.489C145.433 108.696 145.937 108.075 146.581 107.627C147.235 107.17 147.995 106.941 148.863 106.941C149.741 106.941 150.501 107.17 151.145 107.627C151.799 108.075 152.303 108.696 152.657 109.489C153.021 110.282 153.203 111.211 153.203 112.275C153.203 113.33 153.031 114.254 152.685 115.047C152.34 115.84 151.845 116.456 151.201 116.895C150.557 117.334 149.778 117.553 148.863 117.553C147.967 117.553 147.193 117.334 146.539 116.895C145.895 116.456 145.401 115.84 145.055 115.047C144.71 114.254 144.537 113.33 144.537 112.275ZM146.301 112.275C146.301 113.059 146.404 113.731 146.609 114.291C146.815 114.842 147.109 115.262 147.491 115.551C147.874 115.831 148.331 115.971 148.863 115.971C149.414 115.971 149.876 115.831 150.249 115.551C150.632 115.262 150.926 114.842 151.131 114.291C151.337 113.731 151.439 113.059 151.439 112.275C151.439 111.463 151.337 110.782 151.131 110.231C150.926 109.671 150.632 109.246 150.249 108.957C149.876 108.668 149.414 108.523 148.863 108.523C148.331 108.523 147.874 108.668 147.491 108.957C147.109 109.246 146.815 109.671 146.609 110.231C146.404 110.782 146.301 111.463 146.301 112.275ZM155.583 117.245L155.751 117.203C155.676 117.268 155.592 117.32 155.499 117.357C155.415 117.385 155.312 117.399 155.191 117.399C154.92 117.399 154.687 117.31 154.491 117.133C154.295 116.946 154.197 116.713 154.197 116.433C154.197 116.097 154.295 115.826 154.491 115.621C154.687 115.416 154.943 115.313 155.261 115.313C155.615 115.313 155.905 115.444 156.129 115.705C156.353 115.966 156.465 116.316 156.465 116.755C156.465 117.138 156.381 117.488 156.213 117.805C156.045 118.132 155.811 118.398 155.513 118.603C155.214 118.808 154.873 118.934 154.491 118.981V118.295C154.808 118.239 155.069 118.118 155.275 117.931C155.48 117.754 155.583 117.525 155.583 117.245ZM164.532 107.137V117.371H162.838V107.137H164.532ZM157.644 113.857L162.278 107.137H164.168L159.464 113.969L157.644 113.857ZM165.778 115.425H157.644V113.857H165.778V115.425ZM170.351 117.539C169.641 117.539 169.016 117.399 168.475 117.119C167.943 116.83 167.527 116.428 167.229 115.915C166.939 115.392 166.795 114.786 166.795 114.095H168.559C168.559 114.674 168.722 115.126 169.049 115.453C169.375 115.78 169.823 115.943 170.393 115.943C170.794 115.943 171.139 115.864 171.429 115.705C171.727 115.537 171.956 115.299 172.115 114.991C172.283 114.683 172.367 114.324 172.367 113.913C172.367 113.521 172.287 113.176 172.129 112.877C171.979 112.569 171.76 112.331 171.471 112.163C171.181 111.995 170.831 111.911 170.421 111.911C170.029 111.911 169.665 112 169.329 112.177C169.002 112.345 168.745 112.564 168.559 112.835L166.977 112.499L168.237 107.137H173.571V108.789H169.063L169.665 108.229L168.839 111.491L168.237 111.743C168.461 111.314 168.797 110.987 169.245 110.763C169.702 110.53 170.215 110.413 170.785 110.413C171.466 110.413 172.059 110.558 172.563 110.847C173.076 111.136 173.473 111.538 173.753 112.051C174.042 112.555 174.187 113.143 174.187 113.815C174.187 114.552 174.023 115.201 173.697 115.761C173.379 116.321 172.931 116.76 172.353 117.077C171.783 117.385 171.116 117.539 170.351 117.539ZM175.217 112.275C175.217 111.211 175.394 110.282 175.749 109.489C176.113 108.696 176.617 108.075 177.261 107.627C177.914 107.17 178.675 106.941 179.543 106.941C180.42 106.941 181.181 107.17 181.825 107.627C182.478 108.075 182.982 108.696 183.337 109.489C183.701 110.282 183.883 111.211 183.883 112.275C183.883 113.33 183.71 114.254 183.365 115.047C183.02 115.84 182.525 116.456 181.881 116.895C181.237 117.334 180.458 117.553 179.543 117.553C178.647 117.553 177.872 117.334 177.219 116.895C176.575 116.456 176.08 115.84 175.735 115.047C175.39 114.254 175.217 113.33 175.217 112.275ZM176.981 112.275C176.981 113.059 177.084 113.731 177.289 114.291C177.494 114.842 177.788 115.262 178.171 115.551C178.554 115.831 179.011 115.971 179.543 115.971C180.094 115.971 180.556 115.831 180.929 115.551C181.312 115.262 181.606 114.842 181.811 114.291C182.016 113.731 182.119 113.059 182.119 112.275C182.119 111.463 182.016 110.782 181.811 110.231C181.606 109.671 181.312 109.246 180.929 108.957C180.556 108.668 180.094 108.523 179.543 108.523C179.011 108.523 178.554 108.668 178.171 108.957C177.788 109.246 177.494 109.671 177.289 110.231C177.084 110.782 176.981 111.463 176.981 112.275Z" fill="white"/>
<path d="M157.571 129.968L154.398 124.472L160.743 124.472L157.571 129.968Z" fill="#191919"/>
</svg>
