<svg width="171" height="34" viewBox="0 0 171 34" fill="none" xmlns="http://www.w3.org/2000/svg">
<mask id="mask0_656_1127" style="mask-type:alpha" maskUnits="userSpaceOnUse" x="0" y="0" width="33" height="34">
<rect y="0.662354" width="32.6752" height="32.6752" fill="#D9D9D9"/>
</mask>
<g mask="url(#mask0_656_1127)">
<path d="M24.994 8.3438C30.4393 13.7891 32.2786 20.7784 29.1022 23.9548C25.9258 27.1312 18.9365 25.2919 13.4912 19.8466C8.04588 14.4013 6.20659 7.41206 9.38302 4.23563C12.5594 1.05921 19.5487 2.8985 24.994 8.3438Z" fill="#191919"/>
<path fill-rule="evenodd" clip-rule="evenodd" d="M29.1576 17.2958C28.4752 14.7027 26.7757 11.7688 24.1724 9.16543C21.5691 6.5621 18.6351 4.86268 16.042 4.18027C13.4169 3.48947 11.3793 3.8826 10.2047 5.05727C9.02999 6.23193 8.63685 8.26954 9.32766 10.8946C10.0101 13.4877 11.7095 16.4217 14.3128 19.025C16.9161 21.6283 19.8501 23.3278 22.4432 24.0102C25.0683 24.701 27.1059 24.3078 28.2806 23.1332C29.4552 21.9585 29.8484 19.9209 29.1576 17.2958ZM29.1022 23.9548C32.2786 20.7784 30.4393 13.7891 24.994 8.3438C19.5487 2.8985 12.5594 1.05921 9.38302 4.23563C6.20659 7.41206 8.04588 14.4013 13.4912 19.8466C18.9365 25.2919 25.9258 27.1312 29.1022 23.9548Z" fill="#191919"/>
<path d="M19.1842 14.659C24.6295 20.1043 26.4688 27.0936 23.2924 30.27C20.116 33.4464 13.1267 31.6071 7.68137 26.1618C2.23607 20.7165 0.396779 13.7272 3.5732 10.5508C6.74963 7.37439 13.7389 9.21368 19.1842 14.659Z" fill="white"/>
<path fill-rule="evenodd" clip-rule="evenodd" d="M23.4181 23.5925C22.7319 20.9848 21.0249 18.0399 18.4141 15.4291C15.8033 12.8183 12.8584 11.1113 10.2507 10.4251C7.6131 9.73096 5.54394 10.1204 4.34336 11.321C3.14279 12.5216 2.75334 14.5907 3.44745 17.2283C4.13367 19.836 5.84072 22.7809 8.45153 25.3917C11.0623 28.0025 14.0072 29.7095 16.6149 30.3958C19.2525 31.0899 21.3216 30.7004 22.5222 29.4998C23.7228 28.2993 24.1122 26.2301 23.4181 23.5925ZM23.2924 30.27C26.4688 27.0936 24.6295 20.1043 19.1842 14.659C13.7389 9.21368 6.74963 7.37439 3.5732 10.5508C0.396778 13.7272 2.23607 20.7165 7.68137 26.1618C13.1267 31.6071 20.116 33.4464 23.2924 30.27Z" fill="#191919"/>
</g>
<path d="M51.8968 27.1438C49.2305 27.1438 46.9824 26.255 45.1526 24.4775C43.3228 22.7 42.4079 20.3735 42.4079 17.4981C42.4079 14.6401 43.3315 12.3136 45.1787 10.5187C47.0434 8.72373 49.2653 7.82625 51.8445 7.82625C54.2145 7.82625 56.114 8.42748 57.543 9.62992C58.9894 10.8324 59.9218 12.2788 60.34 13.9692L56.9418 15.0409C56.6804 13.9953 56.1315 13.1153 55.295 12.4008C54.4585 11.6689 53.3083 11.3029 51.8445 11.3029C50.3284 11.3029 48.9952 11.8431 47.845 12.9236C46.7123 14.004 46.1459 15.5289 46.1459 17.4981C46.1459 19.3802 46.7036 20.8702 47.8189 21.9681C48.9516 23.066 50.3109 23.6149 51.8968 23.6149C53.3432 23.6149 54.4933 23.2402 55.3473 22.4909C56.2186 21.7415 56.8024 20.8528 57.0986 19.8246L60.4707 20.844C60.279 21.5934 59.9653 22.3253 59.5297 23.0398C59.1114 23.7543 58.5625 24.4252 57.8829 25.0526C57.2032 25.68 56.3406 26.1853 55.295 26.5687C54.2668 26.9521 53.1341 27.1438 51.8968 27.1438ZM65.1778 23.0137C65.8226 23.6585 66.5981 23.9809 67.5043 23.9809C68.4104 23.9809 69.1772 23.6585 69.8046 23.0137C70.4494 22.3689 70.7718 21.4714 70.7718 20.3212C70.7718 19.1711 70.4494 18.2736 69.8046 17.6288C69.1772 16.984 68.4104 16.6616 67.5043 16.6616C66.5981 16.6616 65.8226 16.984 65.1778 17.6288C64.5504 18.2736 64.2367 19.1711 64.2367 20.3212C64.2367 21.4714 64.5504 22.3689 65.1778 23.0137ZM62.6683 15.433C63.9579 14.1435 65.5699 13.4987 67.5043 13.4987C69.4386 13.4987 71.0419 14.1435 72.314 15.433C73.6036 16.7226 74.2484 18.352 74.2484 20.3212C74.2484 22.2905 73.6036 23.9199 72.314 25.2094C71.0419 26.499 69.4386 27.1438 67.5043 27.1438C65.5699 27.1438 63.9579 26.499 62.6683 25.2094C61.3962 23.9199 60.7601 22.2905 60.7601 20.3212C60.7601 18.352 61.3962 16.7226 62.6683 15.433ZM79.4237 19.3541V26.7517H75.9471V13.8908H79.3192V15.4853C79.6851 14.8579 80.208 14.3787 80.8876 14.0476C81.5672 13.7165 82.2817 13.5509 83.0311 13.5509C84.5472 13.5509 85.6974 14.0302 86.4816 14.9887C87.2832 15.9297 87.684 17.1496 87.684 18.6483V26.7517H84.2074V19.2495C84.2074 18.4827 84.007 17.8641 83.6062 17.3935C83.2228 16.923 82.6303 16.6878 81.8286 16.6878C81.0967 16.6878 80.5129 16.9404 80.0772 17.4458C79.6416 17.9512 79.4237 18.5873 79.4237 19.3541ZM102.066 13.8908L97.0734 26.7517H93.5968L88.3426 13.8908H92.1591L95.3482 22.517L98.4066 13.8908H102.066ZM105.289 18.8574H111.039C111.005 18.1429 110.743 17.5417 110.255 17.0537C109.785 16.5658 109.088 16.3218 108.164 16.3218C107.328 16.3218 106.648 16.5832 106.125 17.106C105.602 17.6288 105.323 18.2126 105.289 18.8574ZM111.379 22.2033L114.281 23.066C113.932 24.251 113.244 25.2269 112.216 25.9936C111.205 26.7604 109.942 27.1438 108.425 27.1438C106.578 27.1438 105.01 26.5252 103.72 25.2879C102.431 24.0331 101.786 22.3602 101.786 20.269C101.786 18.2823 102.413 16.6616 103.668 15.4069C104.923 14.1347 106.404 13.4987 108.112 13.4987C110.098 13.4987 111.649 14.0912 112.765 15.2762C113.897 16.4612 114.464 18.0906 114.464 20.1644C114.464 20.3038 114.455 20.4607 114.438 20.6349C114.438 20.8092 114.438 20.9486 114.438 21.0532L114.411 21.2361H105.21C105.245 22.0726 105.576 22.7697 106.203 23.3274C106.831 23.885 107.58 24.1638 108.452 24.1638C109.933 24.1638 110.909 23.5103 111.379 22.2033ZM123.998 13.8385V17.3413C123.649 17.2716 123.301 17.2367 122.952 17.2367C121.959 17.2367 121.157 17.5242 120.547 18.0993C119.938 18.657 119.633 19.5806 119.633 20.8702V26.7517H116.156V13.8908H119.528V15.799C120.155 14.4571 121.375 13.7862 123.188 13.7862C123.379 13.7862 123.649 13.8036 123.998 13.8385ZM124.377 23.1705L127.357 22.517C127.391 23.0747 127.609 23.5452 128.01 23.9286C128.428 24.2945 128.995 24.4775 129.709 24.4775C130.249 24.4775 130.668 24.3555 130.964 24.1116C131.26 23.8676 131.408 23.5626 131.408 23.1967C131.408 22.5519 130.946 22.1336 130.023 21.9419L128.324 21.5498C127.121 21.2884 126.215 20.8179 125.605 20.1383C125.013 19.4586 124.716 18.6483 124.716 17.7072C124.716 16.5396 125.17 15.5463 126.076 14.7272C126.999 13.9082 128.149 13.4987 129.526 13.4987C130.398 13.4987 131.164 13.6294 131.827 13.8908C132.489 14.1347 133.003 14.4571 133.369 14.8579C133.735 15.2413 134.014 15.6334 134.205 16.0343C134.397 16.4351 134.519 16.8272 134.571 17.2106L131.67 17.8641C131.6 17.411 131.391 17.0102 131.042 16.6616C130.711 16.3131 130.215 16.1388 129.552 16.1388C129.099 16.1388 128.707 16.2608 128.376 16.5048C128.062 16.7488 127.906 17.0537 127.906 17.4197C127.906 18.047 128.298 18.4304 129.082 18.5698L130.912 18.962C132.149 19.2234 133.09 19.7026 133.735 20.3997C134.397 21.0967 134.728 21.9332 134.728 22.9091C134.728 24.0593 134.292 25.0526 133.421 25.8891C132.55 26.7256 131.321 27.1438 129.735 27.1438C128.829 27.1438 128.019 27.0131 127.304 26.7517C126.59 26.4729 126.032 26.1243 125.631 25.7061C125.248 25.2704 124.952 24.8435 124.743 24.4252C124.551 23.9896 124.429 23.5713 124.377 23.1705ZM139.954 26.7517H136.478V13.8908H139.954V26.7517ZM136.06 9.6822C136.06 9.08969 136.269 8.58432 136.687 8.16608C137.105 7.73041 137.611 7.51257 138.203 7.51257C138.796 7.51257 139.301 7.72169 139.719 8.13994C140.137 8.55818 140.347 9.07227 140.347 9.6822C140.347 10.2573 140.137 10.7539 139.719 11.1722C139.301 11.5904 138.796 11.7996 138.203 11.7996C137.611 11.7996 137.105 11.5904 136.687 11.1722C136.269 10.7539 136.06 10.2573 136.06 9.6822ZM146.081 23.0137C146.726 23.6585 147.502 23.9809 148.408 23.9809C149.314 23.9809 150.081 23.6585 150.708 23.0137C151.353 22.3689 151.675 21.4714 151.675 20.3212C151.675 19.1711 151.353 18.2736 150.708 17.6288C150.081 16.984 149.314 16.6616 148.408 16.6616C147.502 16.6616 146.726 16.984 146.081 17.6288C145.454 18.2736 145.14 19.1711 145.14 20.3212C145.14 21.4714 145.454 22.3689 146.081 23.0137ZM143.572 15.433C144.862 14.1435 146.474 13.4987 148.408 13.4987C150.342 13.4987 151.946 14.1435 153.218 15.433C154.507 16.7226 155.152 18.352 155.152 20.3212C155.152 22.2905 154.507 23.9199 153.218 25.2094C151.946 26.499 150.342 27.1438 148.408 27.1438C146.474 27.1438 144.862 26.499 143.572 25.2094C142.3 23.9199 141.664 22.2905 141.664 20.3212C141.664 18.352 142.3 16.7226 143.572 15.433ZM160.327 19.3541V26.7517H156.851V13.8908H160.223V15.4853C160.589 14.8579 161.112 14.3787 161.791 14.0476C162.471 13.7165 163.185 13.5509 163.935 13.5509C165.451 13.5509 166.601 14.0302 167.385 14.9887C168.187 15.9297 168.588 17.1496 168.588 18.6483V26.7517H165.111V19.2495C165.111 18.4827 164.911 17.8641 164.51 17.3935C164.126 16.923 163.534 16.6878 162.732 16.6878C162 16.6878 161.417 16.9404 160.981 17.4458C160.545 17.9512 160.327 18.5873 160.327 19.3541Z" fill="#191919"/>
</svg>
