<svg width="482" height="551" viewBox="0 0 482 551" fill="none" xmlns="http://www.w3.org/2000/svg">
<rect x="1.5" y="0.5" width="479" height="549" rx="15.5" fill="#F9F9F9" stroke="#191919"/>
<path d="M43.136 59.384C47.336 59.384 49.952 57.248 49.952 53.504C49.952 49.76 47.336 47.768 43.136 47.768H36.776V65H40.424V59.384H43.136ZM43.112 50.84C45.176 50.84 46.328 51.824 46.328 53.528C46.328 55.232 45.176 56.312 43.112 56.312H40.424V50.84H43.112ZM57.4779 65.216C60.5979 65.216 62.8299 63.56 63.5499 60.656H60.2379C59.8539 61.928 58.8699 62.648 57.4059 62.648C55.7019 62.648 54.6939 61.496 54.4779 59.408H63.5739C64.1739 55.232 61.4859 51.944 57.4299 51.944C53.7339 51.944 51.0699 54.728 51.0699 58.544C51.0699 62.552 53.6379 65.216 57.4779 65.216ZM57.3579 54.392C58.9419 54.392 59.9499 55.52 60.0459 57.296H54.5259C54.8139 55.4 55.7979 54.392 57.3579 54.392ZM69.1443 58.784C69.1443 55.952 71.0403 55.28 73.8723 55.496V52.04C71.8083 52.04 69.8163 53.024 68.8803 54.656V52.184H65.8083V65H69.1443V58.784ZM80.8678 65V55.04H84.2038V52.184H80.8678V51.56C80.8678 50.672 81.4678 50.312 82.3798 50.312C82.8118 50.312 83.2918 50.384 83.6518 50.528V47.888C83.0998 47.648 82.4038 47.504 81.5878 47.504C78.9238 47.504 77.5558 48.944 77.5558 51.488V52.184H74.9638V55.04H77.5558V65H80.8678ZM91.2301 65.24C94.9501 65.24 97.7341 62.312 97.7341 58.592C97.7341 54.848 94.9501 51.944 91.2301 51.944C87.5101 51.944 84.7261 54.848 84.7261 58.592C84.7261 62.312 87.5101 65.24 91.2301 65.24ZM91.2301 62.288C89.5741 62.288 88.1581 60.968 88.1581 58.592C88.1581 56.216 89.5741 54.92 91.2301 54.92C92.8861 54.92 94.3021 56.216 94.3021 58.592C94.3021 60.968 92.8861 62.288 91.2301 62.288ZM103.199 58.784C103.199 55.952 105.095 55.28 107.927 55.496V52.04C105.863 52.04 103.871 53.024 102.935 54.656V52.184H99.863V65H103.199V58.784ZM112.996 65V57.848C112.996 55.928 114.052 54.896 115.396 54.896C116.86 54.896 117.628 55.976 117.628 57.776V65H120.94V57.848C120.94 55.928 122.02 54.896 123.34 54.896C124.804 54.896 125.572 55.976 125.572 57.776V65H128.884V56.72C128.884 53.648 127.132 51.944 124.54 51.944C122.62 51.944 121.324 52.808 120.316 54.224C119.668 52.76 118.324 51.944 116.572 51.944C114.868 51.944 113.668 52.712 112.732 54.008V52.184H109.66V65H112.996ZM139.37 65H142.082V56.936C142.082 53.792 140.114 51.944 136.754 51.944C133.658 51.944 131.522 53.864 131.33 56.816H134.33C134.45 55.376 135.314 54.536 136.754 54.536C138.146 54.536 138.962 55.376 138.962 56.816V57.584C138.17 57.488 137.546 57.44 136.826 57.44C133.082 57.44 131.066 58.784 131.066 61.28C131.066 63.68 132.842 65.24 135.506 65.24C137.258 65.24 138.53 64.616 139.37 63.416V65ZM134.21 61.184C134.21 60.032 135.146 59.432 137.042 59.432C137.618 59.432 138.17 59.48 138.962 59.6V60.512C138.962 62 137.93 62.936 136.226 62.936C134.978 62.936 134.21 62.264 134.21 61.184ZM148.293 58.016C148.293 55.952 149.421 54.896 150.741 54.896C152.253 54.896 152.997 55.952 152.997 57.848V65H156.309V56.72C156.309 53.624 154.533 51.944 151.965 51.944C150.285 51.944 148.965 52.736 148.029 54.008V52.184H144.957V65H148.293V58.016ZM164.583 65.24C168.015 65.24 170.415 63.056 170.799 59.528H167.295C167.103 61.28 166.119 62.288 164.583 62.288C162.831 62.288 161.751 60.896 161.751 58.592C161.751 56.312 162.855 54.896 164.583 54.896C166.095 54.896 167.127 55.952 167.295 57.656H170.799C170.391 54.2 167.919 51.944 164.583 51.944C160.983 51.944 158.343 54.752 158.343 58.592C158.343 62.504 160.887 65.24 164.583 65.24ZM178.462 65.216C181.582 65.216 183.814 63.56 184.534 60.656H181.222C180.838 61.928 179.854 62.648 178.39 62.648C176.686 62.648 175.678 61.496 175.462 59.408H184.558C185.158 55.232 182.47 51.944 178.414 51.944C174.718 51.944 172.054 54.728 172.054 58.544C172.054 62.552 174.622 65.216 178.462 65.216ZM178.342 54.392C179.926 54.392 180.934 55.52 181.03 57.296H175.51C175.798 55.4 176.782 54.392 178.342 54.392Z" fill="#191919"/>
<path d="M434 57.2188C434.673 57.2188 435.219 56.6731 435.219 56C435.219 55.3269 434.673 54.7812 434 54.7812C433.327 54.7812 432.781 55.3269 432.781 56C432.781 56.6731 433.327 57.2188 434 57.2188Z" fill="#191919"/>
<path d="M434 50.7188C434.673 50.7188 435.219 50.1731 435.219 49.5C435.219 48.8269 434.673 48.2812 434 48.2812C433.327 48.2812 432.781 48.8269 432.781 49.5C432.781 50.1731 433.327 50.7188 434 50.7188Z" fill="#191919"/>
<path d="M434 63.7188C434.673 63.7188 435.219 63.1731 435.219 62.5C435.219 61.8269 434.673 61.2812 434 61.2812C433.327 61.2812 432.781 61.8269 432.781 62.5C432.781 63.1731 433.327 63.7188 434 63.7188Z" fill="#191919"/>
<path d="M125.19 138.82V135.256H104.29V140.712H118.414L107.634 165H114.19L125.19 138.82ZM137.01 165.352C143.786 165.352 148.538 160.82 148.538 155.1C148.538 149.468 144.27 145.464 138.198 145.464C137.714 145.464 137.23 145.508 136.746 145.684L145.282 135.256H138.374L129.398 146.08C126.626 149.38 125.526 151.756 125.526 155.496C125.526 160.82 130.234 165.352 137.01 165.352ZM137.054 160.248C134.282 160.248 131.906 158.488 131.906 155.276C131.906 151.8 134.282 150.26 137.054 150.26C139.826 150.26 142.202 151.932 142.202 155.32C142.202 158.488 139.826 160.248 137.054 160.248ZM160.424 153.472C165.924 153.472 170.06 149.292 170.06 144.232C170.06 139.128 165.924 134.992 160.424 134.992C154.88 134.992 150.788 139.128 150.788 144.232C150.788 149.292 154.88 153.472 160.424 153.472ZM167.728 165L184.624 135.256H179.74L162.844 165H167.728ZM160.424 149.16C157.96 149.16 155.76 147.488 155.76 144.232C155.76 140.976 157.96 139.304 160.424 139.304C162.932 139.304 165.044 140.976 165.044 144.232C165.044 147.488 162.932 149.16 160.424 149.16ZM187.792 165.396C193.336 165.396 197.428 161.216 197.428 156.156C197.428 151.052 193.336 146.916 187.792 146.916C182.248 146.916 178.156 151.052 178.156 156.156C178.156 161.216 182.248 165.396 187.792 165.396ZM187.792 161.04C185.328 161.04 183.128 159.412 183.128 156.156C183.128 152.856 185.328 151.228 187.792 151.228C190.3 151.228 192.456 152.856 192.456 156.156C192.456 159.412 190.3 161.04 187.792 161.04Z" fill="#191919"/>
<path d="M101.151 188.052C101.151 186.442 102.341 185.476 103.895 185.532V184.51C102.677 184.51 101.585 185.21 101.081 186.302V184.622H100.171V192H101.151V188.052ZM107.978 192.14C109.672 192.14 110.918 191.146 111.254 189.508H110.288C110.05 190.684 109.196 191.37 107.964 191.37C106.522 191.37 105.598 190.292 105.514 188.542H111.226C111.394 186.176 110.022 184.482 107.922 184.482C105.962 184.482 104.534 186.092 104.534 188.248C104.534 190.586 105.906 192.14 107.978 192.14ZM107.908 185.238C109.266 185.238 110.12 186.218 110.204 187.87H105.514C105.64 186.26 106.578 185.238 107.908 185.238ZM117.381 192H118.221V187.198C118.221 185.49 117.213 184.482 115.491 184.482C113.811 184.482 112.677 185.574 112.635 187.212H113.531C113.545 186.008 114.301 185.266 115.505 185.266C116.625 185.266 117.283 185.994 117.283 187.226V187.842C116.555 187.786 116.219 187.758 115.771 187.758C113.531 187.758 112.383 188.514 112.383 189.956C112.383 191.286 113.377 192.14 114.903 192.14C116.051 192.14 116.947 191.58 117.381 190.656V192ZM113.321 189.928C113.321 188.906 114.133 188.416 115.813 188.416C116.219 188.416 116.653 188.43 117.283 188.486V189.144C117.283 190.53 116.415 191.426 115.043 191.426C114.007 191.426 113.321 190.824 113.321 189.928ZM123.041 192.154C124.777 192.154 126.023 191.02 126.289 189.144H125.295C125.071 190.516 124.245 191.3 123.041 191.3C121.669 191.3 120.731 190.096 120.731 188.304C120.731 186.54 121.669 185.336 123.041 185.336C124.231 185.336 125.071 186.134 125.295 187.478H126.289C125.995 185.63 124.763 184.482 123.041 184.482C121.109 184.482 119.737 186.064 119.737 188.304C119.737 190.572 121.095 192.154 123.041 192.154ZM128.851 187.702C128.851 186.33 129.775 185.336 130.923 185.336C132.127 185.336 132.771 186.134 132.771 187.548V192H133.751V187.212C133.751 185.462 132.757 184.482 131.217 184.482C130.153 184.482 129.313 185.098 128.851 185.98V181.948H127.871V192H128.851V187.702ZM144.424 184.622H143.43L141.176 190.726L138.796 184.622H137.746L140.672 191.902L139.594 194.702H140.644L144.424 184.622ZM148.297 192.14C150.341 192.14 151.811 190.53 151.811 188.304C151.811 186.092 150.341 184.496 148.297 184.496C146.267 184.496 144.797 186.092 144.797 188.304C144.797 190.53 146.267 192.14 148.297 192.14ZM148.297 191.286C146.869 191.286 145.791 190.138 145.791 188.304C145.791 186.498 146.869 185.35 148.297 185.35C149.739 185.35 150.817 186.498 150.817 188.304C150.817 190.138 149.739 191.286 148.297 191.286ZM158.114 189.018C158.114 190.334 157.26 191.286 156.084 191.286C155.048 191.286 154.306 190.712 154.306 189.214V184.622H153.326V189.424C153.326 191.286 154.32 192.14 155.818 192.14C156.896 192.14 157.792 191.524 158.17 190.67V192H159.08V184.622H158.114V189.018ZM162.183 188.052C162.183 186.442 163.373 185.476 164.927 185.532V184.51C163.709 184.51 162.617 185.21 162.113 186.302V184.622H161.203V192H162.183V188.052ZM171.836 194.856C173.852 194.856 175.014 193.736 175.014 191.832V184.622H174.104V186.19C173.628 185.112 172.704 184.482 171.598 184.482C169.736 184.482 168.504 185.966 168.504 188.206C168.504 190.446 169.75 191.944 171.612 191.944C172.704 191.944 173.6 191.342 174.048 190.306V191.846C174.048 193.302 173.278 194.072 171.822 194.072C170.506 194.072 169.722 193.428 169.638 192.224H168.7C168.784 193.876 169.96 194.856 171.836 194.856ZM169.484 188.206C169.484 186.414 170.352 185.322 171.752 185.322C173.152 185.322 174.062 186.47 174.062 188.276C174.062 189.984 173.138 191.104 171.752 191.104C170.338 191.104 169.484 190.012 169.484 188.206ZM180.098 192.14C182.142 192.14 183.612 190.53 183.612 188.304C183.612 186.092 182.142 184.496 180.098 184.496C178.068 184.496 176.598 186.092 176.598 188.304C176.598 190.53 178.068 192.14 180.098 192.14ZM180.098 191.286C178.67 191.286 177.592 190.138 177.592 188.304C177.592 186.498 178.67 185.35 180.098 185.35C181.54 185.35 182.618 186.498 182.618 188.304C182.618 190.138 181.54 191.286 180.098 191.286ZM189.733 192H190.573V187.198C190.573 185.49 189.565 184.482 187.843 184.482C186.163 184.482 185.029 185.574 184.987 187.212H185.883C185.897 186.008 186.653 185.266 187.857 185.266C188.977 185.266 189.635 185.994 189.635 187.226V187.842C188.907 187.786 188.571 187.758 188.123 187.758C185.883 187.758 184.735 188.514 184.735 189.956C184.735 191.286 185.729 192.14 187.255 192.14C188.403 192.14 189.299 191.58 189.733 190.656V192ZM185.673 189.928C185.673 188.906 186.485 188.416 188.165 188.416C188.571 188.416 189.005 188.43 189.635 188.486V189.144C189.635 190.53 188.767 191.426 187.395 191.426C186.359 191.426 185.673 190.824 185.673 189.928ZM193.614 192V181.948H192.634V192H193.614ZM201.254 189.942C201.254 188.892 200.596 188.276 199.126 187.996L198.02 187.786C196.928 187.576 196.48 187.226 196.48 186.498C196.48 185.728 197.194 185.238 198.23 185.238C199.392 185.238 200.134 185.84 200.232 186.862H201.156C201.044 185.392 199.924 184.482 198.23 184.482C196.62 184.482 195.528 185.35 195.528 186.582C195.528 187.646 196.27 188.332 197.67 188.598L198.734 188.808C199.854 189.032 200.274 189.368 200.274 190.096C200.274 190.936 199.546 191.398 198.342 191.398C197.082 191.398 196.256 190.74 196.186 189.69H195.248C195.388 191.216 196.508 192.14 198.342 192.14C200.162 192.14 201.254 191.3 201.254 189.942Z" fill="#191919"/>
<path d="M307.247 159.148V153.824H303.067V135.256H298.227L282.871 154.616V159.148H296.995V165H303.067V159.148H307.247ZM289.559 153.824L296.995 144.012V153.824H289.559ZM333.888 159.148V153.824H329.708V135.256H324.868L309.512 154.616V159.148H323.636V165H329.708V159.148H333.888ZM316.2 153.824L323.636 144.012V153.824H316.2ZM345.712 153.472C351.212 153.472 355.348 149.292 355.348 144.232C355.348 139.128 351.212 134.992 345.712 134.992C340.168 134.992 336.076 139.128 336.076 144.232C336.076 149.292 340.168 153.472 345.712 153.472ZM353.016 165L369.912 135.256H365.028L348.132 165H353.016ZM345.712 149.16C343.248 149.16 341.048 147.488 341.048 144.232C341.048 140.976 343.248 139.304 345.712 139.304C348.22 139.304 350.332 140.976 350.332 144.232C350.332 147.488 348.22 149.16 345.712 149.16ZM373.08 165.396C378.624 165.396 382.716 161.216 382.716 156.156C382.716 151.052 378.624 146.916 373.08 146.916C367.536 146.916 363.444 151.052 363.444 156.156C363.444 161.216 367.536 165.396 373.08 165.396ZM373.08 161.04C370.616 161.04 368.416 159.412 368.416 156.156C368.416 152.856 370.616 151.228 373.08 151.228C375.588 151.228 377.744 152.856 377.744 156.156C377.744 159.412 375.588 161.04 373.08 161.04Z" fill="#191919"/>
<path d="M284.191 192V181.948H283.211V192H284.191ZM290.851 192H291.691V187.198C291.691 185.49 290.683 184.482 288.961 184.482C287.281 184.482 286.147 185.574 286.105 187.212H287.001C287.015 186.008 287.771 185.266 288.975 185.266C290.095 185.266 290.753 185.994 290.753 187.226V187.842C290.025 187.786 289.689 187.758 289.241 187.758C287.001 187.758 285.853 188.514 285.853 189.956C285.853 191.286 286.847 192.14 288.373 192.14C289.521 192.14 290.417 191.58 290.851 190.656V192ZM286.791 189.928C286.791 188.906 287.603 188.416 289.283 188.416C289.689 188.416 290.123 188.43 290.753 188.486V189.144C290.753 190.53 289.885 191.426 288.513 191.426C287.477 191.426 286.791 190.824 286.791 189.928ZM299.218 184.622H298.224L295.97 190.726L293.59 184.622H292.54L295.466 191.902L294.388 194.702H295.438L299.218 184.622ZM303.035 192.14C304.729 192.14 305.975 191.146 306.311 189.508H305.345C305.107 190.684 304.253 191.37 303.021 191.37C301.579 191.37 300.655 190.292 300.571 188.542H306.283C306.451 186.176 305.079 184.482 302.979 184.482C301.019 184.482 299.591 186.092 299.591 188.248C299.591 190.586 300.963 192.14 303.035 192.14ZM302.965 185.238C304.323 185.238 305.177 186.218 305.261 187.87H300.571C300.697 186.26 301.635 185.238 302.965 185.238ZM308.883 188.052C308.883 186.442 310.073 185.476 311.627 185.532V184.51C310.409 184.51 309.317 185.21 308.813 186.302V184.622H307.903V192H308.883V188.052ZM317.025 182.914C317.025 182.494 316.703 182.186 316.227 182.186C315.765 182.186 315.443 182.494 315.443 182.914C315.443 183.348 315.765 183.656 316.227 183.656C316.703 183.656 317.025 183.348 317.025 182.914ZM316.731 192V184.622H315.751V192H316.731ZM319.834 187.702C319.834 186.33 320.758 185.336 321.906 185.336C323.11 185.336 323.754 186.134 323.754 187.548V192H324.734V187.212C324.734 185.462 323.74 184.482 322.2 184.482C321.136 184.482 320.24 185.098 319.764 186.008V184.622H318.854V192H319.834V187.702ZM336.485 188.304C336.485 186.036 335.211 184.482 333.237 184.482C332.117 184.482 331.179 185.098 330.703 186.176V181.948H329.723V192H330.633V190.446C331.151 191.524 332.103 192.14 333.237 192.14C335.211 192.14 336.485 190.572 336.485 188.304ZM335.491 188.304C335.491 190.18 334.525 191.286 333.083 191.286C331.669 191.286 330.689 190.124 330.689 188.276C330.689 186.414 331.697 185.336 333.083 185.336C334.525 185.336 335.491 186.428 335.491 188.304ZM340.961 192.14C342.655 192.14 343.901 191.146 344.237 189.508H343.271C343.033 190.684 342.179 191.37 340.947 191.37C339.505 191.37 338.581 190.292 338.497 188.542H344.209C344.377 186.176 343.005 184.482 340.905 184.482C338.945 184.482 337.517 186.092 337.517 188.248C337.517 190.586 338.889 192.14 340.961 192.14ZM340.891 185.238C342.249 185.238 343.103 186.218 343.187 187.87H338.497C338.623 186.26 339.561 185.238 340.891 185.238ZM349.609 191.062C349.301 191.188 349.049 191.244 348.741 191.244C347.929 191.244 347.369 190.852 347.369 189.704V185.448H349.679V184.622H347.369V182.438H346.389V184.622H344.653V185.448H346.389V189.914C346.389 191.51 347.327 192.14 348.545 192.14C348.909 192.14 349.231 192.084 349.609 191.93V191.062ZM357.307 192H358.287L360.457 184.622H359.477L357.769 190.628L355.865 184.622H354.899L352.981 190.614L351.273 184.622H350.307L352.463 192H353.457L355.375 185.924L357.307 192ZM364.477 192.14C366.171 192.14 367.417 191.146 367.753 189.508H366.787C366.549 190.684 365.695 191.37 364.463 191.37C363.021 191.37 362.097 190.292 362.013 188.542H367.725C367.893 186.176 366.521 184.482 364.421 184.482C362.461 184.482 361.033 186.092 361.033 188.248C361.033 190.586 362.405 192.14 364.477 192.14ZM364.407 185.238C365.765 185.238 366.619 186.218 366.703 187.87H362.013C362.139 186.26 363.077 185.238 364.407 185.238ZM372.106 192.14C373.8 192.14 375.046 191.146 375.382 189.508H374.416C374.178 190.684 373.324 191.37 372.092 191.37C370.65 191.37 369.726 190.292 369.642 188.542H375.354C375.522 186.176 374.15 184.482 372.05 184.482C370.09 184.482 368.662 186.092 368.662 188.248C368.662 190.586 370.034 192.14 372.106 192.14ZM372.036 185.238C373.394 185.238 374.248 186.218 374.332 187.87H369.642C369.768 186.26 370.706 185.238 372.036 185.238ZM377.953 187.702C377.953 186.33 378.877 185.336 380.025 185.336C381.229 185.336 381.873 186.134 381.873 187.548V192H382.853V187.212C382.853 185.462 381.859 184.482 380.319 184.482C379.255 184.482 378.359 185.098 377.883 186.008V184.622H376.973V192H377.953V187.702Z" fill="#191919"/>
<line x1="242.425" y1="124" x2="242.425" y2="196" stroke="#DADADA" stroke-width="0.849427"/>
<g filter="url(#filter0_d_756_1466)">
<rect x="35" y="246" width="412" height="74" rx="6" fill="white"/>
</g>
<circle cx="71" cy="283" r="12" fill="#191919"/>
<path d="M75.125 280.375L69.875 285.625L67.25 283" stroke="white" stroke-width="1.69885" stroke-linecap="round" stroke-linejoin="round"/>
<path d="M108.25 285.986C108.25 284.078 107.026 283.034 104.758 282.584L102.544 282.134C101.608 281.954 100.798 281.576 100.798 280.694C100.798 279.794 101.554 279.038 102.886 279.038C104.254 279.038 105.19 279.956 105.28 281.306H108.052C107.872 278.606 105.748 276.914 102.85 276.914C100.06 276.914 98.026 278.57 98.026 280.874C98.026 283.016 99.538 284.078 101.5 284.456L103.624 284.87C104.722 285.086 105.352 285.572 105.352 286.382C105.352 287.426 104.362 288.038 102.976 288.038C101.302 288.038 100.384 287.12 100.312 285.698H97.54C97.738 288.434 99.772 290.18 103.03 290.18C106.27 290.18 108.25 288.452 108.25 285.986ZM119.646 285.194C119.646 282.368 117.972 280.208 115.38 280.208C114.156 280.208 113.094 280.766 112.356 281.792V280.388H110.052V293.474H112.554V288.758C113.274 289.694 114.246 290.18 115.38 290.18C117.972 290.18 119.646 288.038 119.646 285.194ZM117.072 285.194C117.072 287.03 116.046 287.948 114.822 287.948C113.598 287.948 112.572 287.012 112.572 285.194C112.572 283.376 113.598 282.422 114.822 282.422C116.046 282.422 117.072 283.394 117.072 285.194ZM125.425 290.162C127.765 290.162 129.439 288.92 129.979 286.742H127.495C127.207 287.696 126.469 288.236 125.371 288.236C124.093 288.236 123.337 287.372 123.175 285.806H129.997C130.447 282.674 128.431 280.208 125.389 280.208C122.617 280.208 120.619 282.296 120.619 285.158C120.619 288.164 122.545 290.162 125.425 290.162ZM125.335 282.044C126.523 282.044 127.279 282.89 127.351 284.222H123.211C123.427 282.8 124.165 282.044 125.335 282.044ZM134.175 284.762C134.175 283.214 135.021 282.422 136.011 282.422C137.145 282.422 137.703 283.214 137.703 284.636V290H140.187V283.79C140.187 281.468 138.855 280.208 136.929 280.208C135.669 280.208 134.679 280.802 133.977 281.756V280.388H131.673V290H134.175V284.762ZM141.713 285.194C141.713 288.002 143.387 290.18 145.979 290.18C147.221 290.18 148.265 289.622 149.021 288.614V290H151.307V277.076H148.823V281.63C148.103 280.712 147.131 280.208 145.979 280.208C143.387 280.208 141.713 282.35 141.713 285.194ZM144.287 285.194C144.287 283.358 145.313 282.422 146.537 282.422C147.761 282.422 148.805 283.34 148.805 285.158C148.805 286.976 147.779 287.948 146.537 287.948C145.313 287.948 144.287 286.994 144.287 285.194ZM156.438 278.156C156.438 277.274 155.754 276.644 154.764 276.644C153.792 276.644 153.108 277.274 153.108 278.156C153.108 279.002 153.792 279.632 154.764 279.632C155.754 279.632 156.438 279.002 156.438 278.156ZM156.042 290V280.388H153.54V290H156.042ZM160.77 284.762C160.77 283.214 161.616 282.422 162.606 282.422C163.74 282.422 164.298 283.214 164.298 284.636V290H166.782V283.79C166.782 281.468 165.45 280.208 163.524 280.208C162.264 280.208 161.274 280.802 160.572 281.756V280.388H158.268V290H160.77V284.762ZM173.024 293.654C175.868 293.654 177.596 292.106 177.596 289.55V280.388H175.31V281.702C174.608 280.712 173.636 280.208 172.34 280.208C169.964 280.208 168.308 282.134 168.308 284.924C168.308 287.642 170.072 289.64 172.43 289.64C173.6 289.64 174.59 289.1 175.112 288.182V289.586C175.112 290.972 174.392 291.71 173.006 291.71C171.818 291.71 171.116 291.134 171.008 290.036H168.596C168.704 292.25 170.432 293.654 173.024 293.654ZM170.81 284.924C170.81 283.358 171.638 282.368 172.916 282.368C174.23 282.368 175.094 283.376 175.094 284.942C175.094 286.454 174.23 287.48 172.916 287.48C171.62 287.48 170.81 286.49 170.81 284.924ZM187.666 290.18C190.24 290.18 192.04 288.542 192.328 285.896H189.7C189.556 287.21 188.818 287.966 187.666 287.966C186.352 287.966 185.542 286.922 185.542 285.194C185.542 283.484 186.37 282.422 187.666 282.422C188.8 282.422 189.574 283.214 189.7 284.492H192.328C192.022 281.9 190.168 280.208 187.666 280.208C184.966 280.208 182.986 282.314 182.986 285.194C182.986 288.128 184.894 290.18 187.666 290.18ZM198.147 290.18C200.937 290.18 203.025 287.984 203.025 285.194C203.025 282.386 200.937 280.208 198.147 280.208C195.357 280.208 193.269 282.386 193.269 285.194C193.269 287.984 195.357 290.18 198.147 290.18ZM198.147 287.966C196.905 287.966 195.843 286.976 195.843 285.194C195.843 283.412 196.905 282.44 198.147 282.44C199.389 282.44 200.451 283.412 200.451 285.194C200.451 286.976 199.389 287.966 198.147 287.966ZM210.472 285.95C210.472 287.246 209.608 287.966 208.708 287.966C207.7 287.966 207.034 287.372 207.034 286.022V280.388H204.532V286.508C204.532 289.01 205.936 290.18 207.862 290.18C209.086 290.18 210.148 289.586 210.67 288.74V290H212.956V280.388H210.472V285.95ZM217.706 285.338C217.706 283.214 219.128 282.71 221.252 282.872V280.28C219.704 280.28 218.21 281.018 217.508 282.242V280.388H215.204V290H217.706V285.338ZM230.67 286.922C230.67 285.536 229.716 284.672 227.844 284.312L225.99 283.97C225.126 283.808 224.73 283.574 224.73 282.998C224.73 282.386 225.342 282.044 226.26 282.044C227.322 282.044 228.024 282.62 228.114 283.556H230.508C230.328 281.486 228.672 280.208 226.26 280.208C223.866 280.208 222.336 281.45 222.336 283.232C222.336 284.726 223.38 285.68 225.108 285.986L226.836 286.31C227.754 286.49 228.15 286.742 228.15 287.354C228.15 288.038 227.412 288.344 226.44 288.344C225.198 288.344 224.352 287.714 224.334 286.724H221.94C222.138 288.866 223.668 290.18 226.404 290.18C229.14 290.18 230.67 288.938 230.67 286.922ZM236.554 290.162C238.894 290.162 240.568 288.92 241.108 286.742H238.624C238.336 287.696 237.598 288.236 236.5 288.236C235.222 288.236 234.466 287.372 234.304 285.806H241.126C241.576 282.674 239.56 280.208 236.518 280.208C233.746 280.208 231.748 282.296 231.748 285.158C231.748 288.164 233.674 290.162 236.554 290.162ZM236.464 282.044C237.652 282.044 238.408 282.89 238.48 284.222H234.34C234.556 282.8 235.294 282.044 236.464 282.044ZM249.497 282.062C249.497 281.054 248.813 280.352 247.823 280.352C246.833 280.352 246.131 281.054 246.131 282.062C246.131 283.052 246.833 283.754 247.823 283.754C248.813 283.754 249.497 283.052 249.497 282.062ZM249.497 288.398C249.497 287.39 248.813 286.688 247.823 286.688C246.833 286.688 246.131 287.39 246.131 288.398C246.131 289.388 246.833 290.09 247.823 290.09C248.813 290.09 249.497 289.388 249.497 288.398ZM264.451 290H265.571L268.051 281.568H266.931L264.979 288.432L262.803 281.568H261.699L259.507 288.416L257.555 281.568H256.451L258.915 290H260.051L262.243 283.056L264.451 290ZM274.439 290H275.399V284.512C275.399 282.56 274.247 281.408 272.279 281.408C270.359 281.408 269.063 282.656 269.015 284.528H270.039C270.055 283.152 270.919 282.304 272.295 282.304C273.575 282.304 274.327 283.136 274.327 284.544V285.248C273.495 285.184 273.111 285.152 272.599 285.152C270.039 285.152 268.727 286.016 268.727 287.664C268.727 289.184 269.863 290.16 271.607 290.16C272.919 290.16 273.943 289.52 274.439 288.464V290ZM269.799 287.632C269.799 286.464 270.727 285.904 272.647 285.904C273.111 285.904 273.607 285.92 274.327 285.984V286.736C274.327 288.32 273.335 289.344 271.767 289.344C270.583 289.344 269.799 288.656 269.799 287.632ZM284.059 287.648C284.059 286.448 283.307 285.744 281.627 285.424L280.363 285.184C279.115 284.944 278.603 284.544 278.603 283.712C278.603 282.832 279.419 282.272 280.603 282.272C281.931 282.272 282.779 282.96 282.891 284.128H283.947C283.819 282.448 282.539 281.408 280.603 281.408C278.763 281.408 277.515 282.4 277.515 283.808C277.515 285.024 278.363 285.808 279.963 286.112L281.179 286.352C282.459 286.608 282.939 286.992 282.939 287.824C282.939 288.784 282.107 289.312 280.731 289.312C279.291 289.312 278.347 288.56 278.267 287.36H277.195C277.355 289.104 278.635 290.16 280.731 290.16C282.811 290.16 284.059 289.2 284.059 287.648ZM290.469 285.088C290.469 283.52 291.525 282.384 292.837 282.384C294.213 282.384 294.949 283.296 294.949 284.912V290H296.069V284.528C296.069 282.528 294.933 281.408 293.173 281.408C291.957 281.408 290.997 282.112 290.469 283.12V278.512H289.349V290H290.469V285.088ZM303.611 290H304.571V284.512C304.571 282.56 303.419 281.408 301.451 281.408C299.531 281.408 298.235 282.656 298.187 284.528H299.211C299.227 283.152 300.091 282.304 301.467 282.304C302.747 282.304 303.499 283.136 303.499 284.544V285.248C302.667 285.184 302.283 285.152 301.771 285.152C299.211 285.152 297.899 286.016 297.899 287.664C297.899 289.184 299.035 290.16 300.779 290.16C302.091 290.16 303.115 289.52 303.611 288.464V290ZM298.971 287.632C298.971 286.464 299.899 285.904 301.819 285.904C302.283 285.904 302.779 285.92 303.499 285.984V286.736C303.499 288.32 302.507 289.344 300.939 289.344C299.755 289.344 298.971 288.656 298.971 287.632ZM313.173 281.568H312.021L309.381 288.688L306.741 281.568H305.541L308.757 290H309.925L313.173 281.568ZM317.536 290.16C319.472 290.16 320.896 289.024 321.28 287.152H320.176C319.904 288.496 318.928 289.28 317.52 289.28C315.872 289.28 314.816 288.048 314.72 286.048H321.248C321.44 283.344 319.872 281.408 317.472 281.408C315.232 281.408 313.6 283.248 313.6 285.712C313.6 288.384 315.168 290.16 317.536 290.16ZM317.456 282.272C319.008 282.272 319.984 283.392 320.08 285.28H314.72C314.864 283.44 315.936 282.272 317.456 282.272ZM324.555 279.616C324.555 279.136 324.187 278.784 323.643 278.784C323.115 278.784 322.747 279.136 322.747 279.616C322.747 280.112 323.115 280.464 323.643 280.464C324.187 280.464 324.555 280.112 324.555 279.616ZM324.219 290V281.568H323.099V290H324.219ZM327.766 285.088C327.766 283.52 328.822 282.384 330.134 282.384C331.51 282.384 332.246 283.296 332.246 284.912V290H333.366V284.528C333.366 282.528 332.23 281.408 330.47 281.408C329.254 281.408 328.23 282.112 327.686 283.152V281.568H326.646V290H327.766V285.088ZM338.908 293.264C341.212 293.264 342.54 291.984 342.54 289.808V281.568H341.5V283.36C340.956 282.128 339.9 281.408 338.636 281.408C336.508 281.408 335.1 283.104 335.1 285.664C335.1 288.224 336.524 289.936 338.652 289.936C339.9 289.936 340.924 289.248 341.436 288.064V289.824C341.436 291.488 340.556 292.368 338.892 292.368C337.388 292.368 336.492 291.632 336.396 290.256H335.324C335.42 292.144 336.764 293.264 338.908 293.264ZM336.22 285.664C336.22 283.616 337.212 282.368 338.812 282.368C340.412 282.368 341.452 283.68 341.452 285.744C341.452 287.696 340.396 288.976 338.812 288.976C337.196 288.976 336.22 287.728 336.22 285.664ZM352.654 288.928C352.302 289.072 352.014 289.136 351.662 289.136C350.734 289.136 350.094 288.688 350.094 287.376V282.512H352.734V281.568H350.094V279.072H348.974V281.568H346.99V282.512H348.974V287.616C348.974 289.44 350.046 290.16 351.438 290.16C351.854 290.16 352.222 290.096 352.654 289.92V288.928ZM359.611 290H360.571V284.512C360.571 282.56 359.419 281.408 357.451 281.408C355.531 281.408 354.235 282.656 354.187 284.528H355.211C355.227 283.152 356.091 282.304 357.467 282.304C358.747 282.304 359.499 283.136 359.499 284.544V285.248C358.667 285.184 358.283 285.152 357.771 285.152C355.211 285.152 353.899 286.016 353.899 287.664C353.899 289.184 355.035 290.16 356.779 290.16C358.091 290.16 359.115 289.52 359.611 288.464V290ZM354.971 287.632C354.971 286.464 355.899 285.904 357.819 285.904C358.283 285.904 358.779 285.92 359.499 285.984V286.736C359.499 288.32 358.507 289.344 356.939 289.344C355.755 289.344 354.971 288.656 354.971 287.632ZM364.047 290V285.952L368.335 290H369.791L365.183 285.696L369.439 281.568H368.111L364.047 285.488V278.512H362.927V290H364.047ZM374.052 290.16C375.988 290.16 377.412 289.024 377.796 287.152H376.692C376.42 288.496 375.444 289.28 374.036 289.28C372.388 289.28 371.332 288.048 371.236 286.048H377.764C377.956 283.344 376.388 281.408 373.988 281.408C371.748 281.408 370.116 283.248 370.116 285.712C370.116 288.384 371.684 290.16 374.052 290.16ZM373.972 282.272C375.524 282.272 376.5 283.392 376.596 285.28H371.236C371.38 283.44 372.452 282.272 373.972 282.272ZM380.735 285.088C380.735 283.52 381.791 282.384 383.103 282.384C384.479 282.384 385.215 283.296 385.215 284.912V290H386.335V284.528C386.335 282.528 385.199 281.408 383.439 281.408C382.223 281.408 381.199 282.112 380.655 283.152V281.568H379.615V290H380.735V285.088Z" fill="#191919"/>
<g filter="url(#filter1_d_756_1466)">
<rect x="35" y="344" width="412" height="74" rx="6" fill="white"/>
</g>
<circle cx="71" cy="381" r="12" fill="#191919"/>
<path d="M75.125 378.375L69.875 383.625L67.25 381" stroke="white" stroke-width="1.69885" stroke-linecap="round" stroke-linejoin="round"/>
<path d="M107.998 384.202C107.998 382.78 107.206 381.754 105.766 381.25C106.918 380.656 107.584 379.702 107.584 378.514C107.584 376.3 105.91 375.076 103.192 375.076H98.332V388H103.39C106.234 388 107.998 386.596 107.998 384.202ZM102.976 377.236C104.308 377.236 104.992 377.812 104.992 378.73C104.992 379.666 104.308 380.242 102.976 380.242H100.816V377.236H102.976ZM103.174 382.42C104.65 382.42 105.424 383.068 105.424 384.094C105.424 385.192 104.65 385.84 103.174 385.84H100.816V382.42H103.174ZM115.62 383.95C115.62 385.246 114.756 385.966 113.856 385.966C112.848 385.966 112.182 385.372 112.182 384.022V378.388H109.68V384.508C109.68 387.01 111.084 388.18 113.01 388.18C114.234 388.18 115.296 387.586 115.818 386.74V388H118.104V378.388H115.62V383.95ZM128.47 384.922C128.47 383.536 127.516 382.672 125.644 382.312L123.79 381.97C122.926 381.808 122.53 381.574 122.53 380.998C122.53 380.386 123.142 380.044 124.06 380.044C125.122 380.044 125.824 380.62 125.914 381.556H128.308C128.128 379.486 126.472 378.208 124.06 378.208C121.666 378.208 120.136 379.45 120.136 381.232C120.136 382.726 121.18 383.68 122.908 383.986L124.636 384.31C125.554 384.49 125.95 384.742 125.95 385.354C125.95 386.038 125.212 386.344 124.24 386.344C122.998 386.344 122.152 385.714 122.134 384.724H119.74C119.938 386.866 121.468 388.18 124.204 388.18C126.94 388.18 128.47 386.938 128.47 384.922ZM133.077 376.156C133.077 375.274 132.393 374.644 131.403 374.644C130.431 374.644 129.747 375.274 129.747 376.156C129.747 377.002 130.431 377.632 131.403 377.632C132.393 377.632 133.077 377.002 133.077 376.156ZM132.681 388V378.388H130.179V388H132.681ZM137.409 382.762C137.409 381.214 138.255 380.422 139.245 380.422C140.379 380.422 140.937 381.214 140.937 382.636V388H143.421V381.79C143.421 379.468 142.089 378.208 140.163 378.208C138.903 378.208 137.913 378.802 137.211 379.756V378.388H134.907V388H137.409V382.762ZM149.753 388.162C152.093 388.162 153.767 386.92 154.307 384.742H151.823C151.535 385.696 150.797 386.236 149.699 386.236C148.421 386.236 147.665 385.372 147.503 383.806H154.325C154.775 380.674 152.759 378.208 149.717 378.208C146.945 378.208 144.947 380.296 144.947 383.158C144.947 386.164 146.873 388.162 149.753 388.162ZM149.663 380.044C150.851 380.044 151.607 380.89 151.679 382.222H147.539C147.755 380.8 148.493 380.044 149.663 380.044ZM164.119 384.922C164.119 383.536 163.165 382.672 161.293 382.312L159.439 381.97C158.575 381.808 158.179 381.574 158.179 380.998C158.179 380.386 158.791 380.044 159.709 380.044C160.771 380.044 161.473 380.62 161.563 381.556H163.957C163.777 379.486 162.121 378.208 159.709 378.208C157.315 378.208 155.785 379.45 155.785 381.232C155.785 382.726 156.829 383.68 158.557 383.986L160.285 384.31C161.203 384.49 161.599 384.742 161.599 385.354C161.599 386.038 160.861 386.344 159.889 386.344C158.647 386.344 157.801 385.714 157.783 384.724H155.389C155.587 386.866 157.117 388.18 159.853 388.18C162.589 388.18 164.119 386.938 164.119 384.922ZM173.945 384.922C173.945 383.536 172.991 382.672 171.119 382.312L169.265 381.97C168.401 381.808 168.005 381.574 168.005 380.998C168.005 380.386 168.617 380.044 169.535 380.044C170.597 380.044 171.299 380.62 171.389 381.556H173.783C173.603 379.486 171.947 378.208 169.535 378.208C167.141 378.208 165.611 379.45 165.611 381.232C165.611 382.726 166.655 383.68 168.383 383.986L170.111 384.31C171.029 384.49 171.425 384.742 171.425 385.354C171.425 386.038 170.687 386.344 169.715 386.344C168.473 386.344 167.627 385.714 167.609 384.724H165.215C165.413 386.866 166.943 388.18 169.679 388.18C172.415 388.18 173.945 386.938 173.945 384.922ZM182.313 376.156C182.313 375.274 181.629 374.644 180.639 374.644C179.667 374.644 178.983 375.274 178.983 376.156C178.983 377.002 179.667 377.632 180.639 377.632C181.629 377.632 182.313 377.002 182.313 376.156ZM181.917 388V378.388H179.415V388H181.917ZM192.261 384.922C192.261 383.536 191.307 382.672 189.435 382.312L187.581 381.97C186.717 381.808 186.321 381.574 186.321 380.998C186.321 380.386 186.933 380.044 187.851 380.044C188.913 380.044 189.615 380.62 189.705 381.556H192.099C191.919 379.486 190.263 378.208 187.851 378.208C185.457 378.208 183.927 379.45 183.927 381.232C183.927 382.726 184.971 383.68 186.699 383.986L188.427 384.31C189.345 384.49 189.741 384.742 189.741 385.354C189.741 386.038 189.003 386.344 188.031 386.344C186.789 386.344 185.943 385.714 185.925 384.724H183.531C183.729 386.866 185.259 388.18 187.995 388.18C190.731 388.18 192.261 386.938 192.261 384.922ZM200.251 388V375.076H197.731V388H200.251ZM208.219 388H210.253V381.952C210.253 379.594 208.777 378.208 206.257 378.208C203.935 378.208 202.333 379.648 202.189 381.862H204.439C204.529 380.782 205.177 380.152 206.257 380.152C207.301 380.152 207.913 380.782 207.913 381.862V382.438C207.319 382.366 206.851 382.33 206.311 382.33C203.503 382.33 201.991 383.338 201.991 385.21C201.991 387.01 203.323 388.18 205.321 388.18C206.635 388.18 207.589 387.712 208.219 386.812V388ZM204.349 385.138C204.349 384.274 205.051 383.824 206.473 383.824C206.905 383.824 207.319 383.86 207.913 383.95V384.634C207.913 385.75 207.139 386.452 205.861 386.452C204.925 386.452 204.349 385.948 204.349 385.138ZM220.733 378.388H218.231L216.035 384.976L213.623 378.388H210.923L214.703 387.892L213.335 391.474H216.053L220.733 378.388ZM225.673 388.162C228.013 388.162 229.687 386.92 230.227 384.742H227.743C227.455 385.696 226.717 386.236 225.619 386.236C224.341 386.236 223.585 385.372 223.423 383.806H230.245C230.695 380.674 228.679 378.208 225.637 378.208C222.865 378.208 220.867 380.296 220.867 383.158C220.867 386.164 222.793 388.162 225.673 388.162ZM225.583 380.044C226.771 380.044 227.527 380.89 227.599 382.222H223.459C223.675 380.8 224.413 380.044 225.583 380.044ZM234.423 383.338C234.423 381.214 235.845 380.71 237.969 380.872V378.28C236.421 378.28 234.927 379.018 234.225 380.242V378.388H231.921V388H234.423V383.338ZM249.726 380.062C249.726 379.054 249.042 378.352 248.052 378.352C247.062 378.352 246.36 379.054 246.36 380.062C246.36 381.052 247.062 381.754 248.052 381.754C249.042 381.754 249.726 381.052 249.726 380.062ZM249.726 386.398C249.726 385.39 249.042 384.688 248.052 384.688C247.062 384.688 246.36 385.39 246.36 386.398C246.36 387.388 247.062 388.09 248.052 388.09C249.042 388.09 249.726 387.388 249.726 386.398ZM264.68 388H265.8L268.28 379.568H267.16L265.208 386.432L263.032 379.568H261.928L259.736 386.416L257.784 379.568H256.68L259.144 388H260.28L262.472 381.056L264.68 388ZM274.668 388H275.628V382.512C275.628 380.56 274.476 379.408 272.508 379.408C270.588 379.408 269.292 380.656 269.244 382.528H270.268C270.284 381.152 271.148 380.304 272.524 380.304C273.804 380.304 274.556 381.136 274.556 382.544V383.248C273.724 383.184 273.34 383.152 272.828 383.152C270.268 383.152 268.956 384.016 268.956 385.664C268.956 387.184 270.092 388.16 271.836 388.16C273.148 388.16 274.172 387.52 274.668 386.464V388ZM270.028 385.632C270.028 384.464 270.956 383.904 272.876 383.904C273.34 383.904 273.836 383.92 274.556 383.984V384.736C274.556 386.32 273.564 387.344 271.996 387.344C270.812 387.344 270.028 386.656 270.028 385.632ZM284.288 385.648C284.288 384.448 283.536 383.744 281.856 383.424L280.592 383.184C279.344 382.944 278.832 382.544 278.832 381.712C278.832 380.832 279.648 380.272 280.832 380.272C282.16 380.272 283.008 380.96 283.12 382.128H284.176C284.048 380.448 282.768 379.408 280.832 379.408C278.992 379.408 277.744 380.4 277.744 381.808C277.744 383.024 278.592 383.808 280.192 384.112L281.408 384.352C282.688 384.608 283.168 384.992 283.168 385.824C283.168 386.784 282.336 387.312 280.96 387.312C279.52 387.312 278.576 386.56 278.496 385.36H277.424C277.584 387.104 278.864 388.16 280.96 388.16C283.04 388.16 284.288 387.2 284.288 385.648ZM290.698 383.088C290.698 381.52 291.754 380.384 293.066 380.384C294.442 380.384 295.178 381.296 295.178 382.912V388H296.298V382.528C296.298 380.528 295.162 379.408 293.402 379.408C292.186 379.408 291.226 380.112 290.698 381.12V376.512H289.578V388H290.698V383.088ZM303.84 388H304.8V382.512C304.8 380.56 303.648 379.408 301.68 379.408C299.76 379.408 298.464 380.656 298.416 382.528H299.44C299.456 381.152 300.32 380.304 301.696 380.304C302.976 380.304 303.728 381.136 303.728 382.544V383.248C302.896 383.184 302.512 383.152 302 383.152C299.44 383.152 298.128 384.016 298.128 385.664C298.128 387.184 299.264 388.16 301.008 388.16C302.32 388.16 303.344 387.52 303.84 386.464V388ZM299.2 385.632C299.2 384.464 300.128 383.904 302.048 383.904C302.512 383.904 303.008 383.92 303.728 383.984V384.736C303.728 386.32 302.736 387.344 301.168 387.344C299.984 387.344 299.2 386.656 299.2 385.632ZM313.402 379.568H312.25L309.61 386.688L306.97 379.568H305.77L308.986 388H310.154L313.402 379.568ZM317.765 388.16C319.701 388.16 321.125 387.024 321.509 385.152H320.405C320.133 386.496 319.157 387.28 317.749 387.28C316.101 387.28 315.045 386.048 314.949 384.048H321.477C321.669 381.344 320.101 379.408 317.701 379.408C315.461 379.408 313.829 381.248 313.829 383.712C313.829 386.384 315.397 388.16 317.765 388.16ZM317.685 380.272C319.237 380.272 320.213 381.392 320.309 383.28H314.949C315.093 381.44 316.165 380.272 317.685 380.272ZM324.784 377.616C324.784 377.136 324.416 376.784 323.872 376.784C323.344 376.784 322.976 377.136 322.976 377.616C322.976 378.112 323.344 378.464 323.872 378.464C324.416 378.464 324.784 378.112 324.784 377.616ZM324.448 388V379.568H323.328V388H324.448ZM327.995 383.088C327.995 381.52 329.051 380.384 330.363 380.384C331.739 380.384 332.475 381.296 332.475 382.912V388H333.595V382.528C333.595 380.528 332.459 379.408 330.699 379.408C329.483 379.408 328.459 380.112 327.915 381.152V379.568H326.875V388H327.995V383.088ZM339.137 391.264C341.441 391.264 342.769 389.984 342.769 387.808V379.568H341.729V381.36C341.185 380.128 340.129 379.408 338.865 379.408C336.737 379.408 335.329 381.104 335.329 383.664C335.329 386.224 336.753 387.936 338.881 387.936C340.129 387.936 341.153 387.248 341.665 386.064V387.824C341.665 389.488 340.785 390.368 339.121 390.368C337.617 390.368 336.721 389.632 336.625 388.256H335.553C335.649 390.144 336.993 391.264 339.137 391.264ZM336.449 383.664C336.449 381.616 337.441 380.368 339.041 380.368C340.641 380.368 341.681 381.68 341.681 383.744C341.681 385.696 340.625 386.976 339.041 386.976C337.425 386.976 336.449 385.728 336.449 383.664ZM352.883 386.928C352.531 387.072 352.243 387.136 351.891 387.136C350.963 387.136 350.323 386.688 350.323 385.376V380.512H352.963V379.568H350.323V377.072H349.203V379.568H347.219V380.512H349.203V385.616C349.203 387.44 350.275 388.16 351.667 388.16C352.083 388.16 352.451 388.096 352.883 387.92V386.928ZM359.84 388H360.8V382.512C360.8 380.56 359.648 379.408 357.68 379.408C355.76 379.408 354.464 380.656 354.416 382.528H355.44C355.456 381.152 356.32 380.304 357.696 380.304C358.976 380.304 359.728 381.136 359.728 382.544V383.248C358.896 383.184 358.512 383.152 358 383.152C355.44 383.152 354.128 384.016 354.128 385.664C354.128 387.184 355.264 388.16 357.008 388.16C358.32 388.16 359.344 387.52 359.84 386.464V388ZM355.2 385.632C355.2 384.464 356.128 383.904 358.048 383.904C358.512 383.904 359.008 383.92 359.728 383.984V384.736C359.728 386.32 358.736 387.344 357.168 387.344C355.984 387.344 355.2 386.656 355.2 385.632ZM364.276 388V383.952L368.564 388H370.02L365.412 383.696L369.668 379.568H368.34L364.276 383.488V376.512H363.156V388H364.276ZM374.28 388.16C376.216 388.16 377.64 387.024 378.024 385.152H376.92C376.648 386.496 375.672 387.28 374.264 387.28C372.616 387.28 371.56 386.048 371.464 384.048H377.992C378.184 381.344 376.616 379.408 374.216 379.408C371.976 379.408 370.344 381.248 370.344 383.712C370.344 386.384 371.912 388.16 374.28 388.16ZM374.2 380.272C375.752 380.272 376.728 381.392 376.824 383.28H371.464C371.608 381.44 372.68 380.272 374.2 380.272ZM380.963 383.088C380.963 381.52 382.019 380.384 383.331 380.384C384.707 380.384 385.443 381.296 385.443 382.912V388H386.563V382.528C386.563 380.528 385.427 379.408 383.667 379.408C382.451 379.408 381.427 380.112 380.883 381.152V379.568H379.843V388H380.963V383.088Z" fill="#191919"/>
<g filter="url(#filter2_d_756_1466)">
<rect x="35" y="442" width="412" height="74" rx="6" fill="white"/>
</g>
<circle cx="71" cy="479" r="12" fill="#191919"/>
<path d="M75.125 476.375L69.875 481.625L67.25 479" stroke="white" stroke-width="1.69885" stroke-linecap="round" stroke-linejoin="round"/>
<path d="M104.2 486H106.486L109.906 477.342V486H112.39V473.076H109.114L105.352 482.652L101.608 473.076H98.332V486H100.816V477.414L104.2 486ZM120.665 481.95C120.665 483.246 119.801 483.966 118.901 483.966C117.893 483.966 117.227 483.372 117.227 482.022V476.388H114.725V482.508C114.725 485.01 116.129 486.18 118.055 486.18C119.279 486.18 120.341 485.586 120.863 484.74V486H123.149V476.388H120.665V481.95ZM127.917 486V473.076H125.397V486H127.917ZM136.137 483.57C135.777 483.768 135.345 483.876 134.877 483.876C133.977 483.876 133.473 483.426 133.473 482.31V478.53H136.227V476.388H133.473V473.544H130.989V476.388H129.045V478.53H130.989V482.886C130.989 485.046 132.231 486.18 134.211 486.18C134.949 486.18 135.525 486.054 136.137 485.748V483.57ZM140.653 474.156C140.653 473.274 139.969 472.644 138.979 472.644C138.007 472.644 137.323 473.274 137.323 474.156C137.323 475.002 138.007 475.632 138.979 475.632C139.969 475.632 140.653 475.002 140.653 474.156ZM140.257 486V476.388H137.755V486H140.257ZM152.077 481.194C152.077 478.368 150.403 476.208 147.811 476.208C146.587 476.208 145.525 476.766 144.787 477.792V476.388H142.483V489.474H144.985V484.758C145.705 485.694 146.677 486.18 147.811 486.18C150.403 486.18 152.077 484.038 152.077 481.194ZM149.503 481.194C149.503 483.03 148.477 483.948 147.253 483.948C146.029 483.948 145.003 483.012 145.003 481.194C145.003 479.376 146.029 478.422 147.253 478.422C148.477 478.422 149.503 479.394 149.503 481.194ZM156.2 486V473.076H153.68V486H156.2ZM162.62 486.162C164.96 486.162 166.634 484.92 167.174 482.742H164.69C164.402 483.696 163.664 484.236 162.566 484.236C161.288 484.236 160.532 483.372 160.37 481.806H167.192C167.642 478.674 165.626 476.208 162.584 476.208C159.812 476.208 157.814 478.296 157.814 481.158C157.814 484.164 159.74 486.162 162.62 486.162ZM162.53 478.044C163.718 478.044 164.474 478.89 164.546 480.222H160.406C160.622 478.8 161.36 478.044 162.53 478.044ZM180.748 482.922C180.748 481.536 179.794 480.672 177.922 480.312L176.068 479.97C175.204 479.808 174.808 479.574 174.808 478.998C174.808 478.386 175.42 478.044 176.338 478.044C177.4 478.044 178.102 478.62 178.192 479.556H180.586C180.406 477.486 178.75 476.208 176.338 476.208C173.944 476.208 172.414 477.45 172.414 479.232C172.414 480.726 173.458 481.68 175.186 481.986L176.914 482.31C177.832 482.49 178.228 482.742 178.228 483.354C178.228 484.038 177.49 484.344 176.518 484.344C175.276 484.344 174.43 483.714 174.412 482.724H172.018C172.216 484.866 173.746 486.18 176.482 486.18C179.218 486.18 180.748 484.938 180.748 482.922ZM186.704 486.18C189.494 486.18 191.582 483.984 191.582 481.194C191.582 478.386 189.494 476.208 186.704 476.208C183.914 476.208 181.826 478.386 181.826 481.194C181.826 483.984 183.914 486.18 186.704 486.18ZM186.704 483.966C185.462 483.966 184.4 482.976 184.4 481.194C184.4 479.412 185.462 478.44 186.704 478.44C187.946 478.44 189.008 479.412 189.008 481.194C189.008 482.976 187.946 483.966 186.704 483.966ZM199.029 481.95C199.029 483.246 198.165 483.966 197.265 483.966C196.257 483.966 195.591 483.372 195.591 482.022V476.388H193.089V482.508C193.089 485.01 194.493 486.18 196.419 486.18C197.643 486.18 198.705 485.586 199.227 484.74V486H201.513V476.388H199.029V481.95ZM206.263 481.338C206.263 479.214 207.685 478.71 209.809 478.872V476.28C208.261 476.28 206.767 477.018 206.065 478.242V476.388H203.761V486H206.263V481.338ZM215.088 486.18C217.662 486.18 219.462 484.542 219.75 481.896H217.122C216.978 483.21 216.24 483.966 215.088 483.966C213.774 483.966 212.964 482.922 212.964 481.194C212.964 479.484 213.792 478.422 215.088 478.422C216.222 478.422 216.996 479.214 217.122 480.492H219.75C219.444 477.9 217.59 476.208 215.088 476.208C212.388 476.208 210.408 478.314 210.408 481.194C210.408 484.128 212.316 486.18 215.088 486.18ZM225.497 486.162C227.837 486.162 229.511 484.92 230.051 482.742H227.567C227.279 483.696 226.541 484.236 225.443 484.236C224.165 484.236 223.409 483.372 223.247 481.806H230.069C230.519 478.674 228.503 476.208 225.461 476.208C222.689 476.208 220.691 478.296 220.691 481.158C220.691 484.164 222.617 486.162 225.497 486.162ZM225.407 478.044C226.595 478.044 227.351 478.89 227.423 480.222H223.283C223.499 478.8 224.237 478.044 225.407 478.044ZM239.863 482.922C239.863 481.536 238.909 480.672 237.037 480.312L235.183 479.97C234.319 479.808 233.923 479.574 233.923 478.998C233.923 478.386 234.535 478.044 235.453 478.044C236.515 478.044 237.217 478.62 237.307 479.556H239.701C239.521 477.486 237.865 476.208 235.453 476.208C233.059 476.208 231.529 477.45 231.529 479.232C231.529 480.726 232.573 481.68 234.301 481.986L236.029 482.31C236.947 482.49 237.343 482.742 237.343 483.354C237.343 484.038 236.605 484.344 235.633 484.344C234.391 484.344 233.545 483.714 233.527 482.724H231.133C231.331 484.866 232.861 486.18 235.597 486.18C238.333 486.18 239.863 484.938 239.863 482.922ZM248.267 478.062C248.267 477.054 247.583 476.352 246.593 476.352C245.603 476.352 244.901 477.054 244.901 478.062C244.901 479.052 245.603 479.754 246.593 479.754C247.583 479.754 248.267 479.052 248.267 478.062ZM248.267 484.398C248.267 483.39 247.583 482.688 246.593 482.688C245.603 482.688 244.901 483.39 244.901 484.398C244.901 485.388 245.603 486.09 246.593 486.09C247.583 486.09 248.267 485.388 248.267 484.398ZM263.221 486H264.341L266.821 477.568H265.701L263.749 484.432L261.573 477.568H260.469L258.277 484.416L256.325 477.568H255.221L257.685 486H258.821L261.013 479.056L263.221 486ZM273.209 486H274.169V480.512C274.169 478.56 273.017 477.408 271.049 477.408C269.129 477.408 267.833 478.656 267.785 480.528H268.809C268.825 479.152 269.689 478.304 271.065 478.304C272.345 478.304 273.097 479.136 273.097 480.544V481.248C272.265 481.184 271.881 481.152 271.369 481.152C268.809 481.152 267.497 482.016 267.497 483.664C267.497 485.184 268.633 486.16 270.377 486.16C271.689 486.16 272.713 485.52 273.209 484.464V486ZM268.569 483.632C268.569 482.464 269.497 481.904 271.417 481.904C271.881 481.904 272.377 481.92 273.097 481.984V482.736C273.097 484.32 272.105 485.344 270.537 485.344C269.353 485.344 268.569 484.656 268.569 483.632ZM282.829 483.648C282.829 482.448 282.077 481.744 280.397 481.424L279.133 481.184C277.885 480.944 277.373 480.544 277.373 479.712C277.373 478.832 278.189 478.272 279.373 478.272C280.701 478.272 281.549 478.96 281.661 480.128H282.717C282.589 478.448 281.309 477.408 279.373 477.408C277.533 477.408 276.285 478.4 276.285 479.808C276.285 481.024 277.133 481.808 278.733 482.112L279.949 482.352C281.229 482.608 281.709 482.992 281.709 483.824C281.709 484.784 280.877 485.312 279.501 485.312C278.061 485.312 277.117 484.56 277.037 483.36H275.965C276.125 485.104 277.405 486.16 279.501 486.16C281.581 486.16 282.829 485.2 282.829 483.648ZM289.239 481.088C289.239 479.52 290.295 478.384 291.607 478.384C292.983 478.384 293.719 479.296 293.719 480.912V486H294.839V480.528C294.839 478.528 293.703 477.408 291.943 477.408C290.727 477.408 289.767 478.112 289.239 479.12V474.512H288.119V486H289.239V481.088ZM302.381 486H303.341V480.512C303.341 478.56 302.189 477.408 300.221 477.408C298.301 477.408 297.005 478.656 296.957 480.528H297.981C297.997 479.152 298.861 478.304 300.237 478.304C301.517 478.304 302.269 479.136 302.269 480.544V481.248C301.437 481.184 301.053 481.152 300.541 481.152C297.981 481.152 296.669 482.016 296.669 483.664C296.669 485.184 297.805 486.16 299.549 486.16C300.861 486.16 301.885 485.52 302.381 484.464V486ZM297.741 483.632C297.741 482.464 298.669 481.904 300.589 481.904C301.053 481.904 301.549 481.92 302.269 481.984V482.736C302.269 484.32 301.277 485.344 299.709 485.344C298.525 485.344 297.741 484.656 297.741 483.632ZM311.943 477.568H310.791L308.151 484.688L305.511 477.568H304.311L307.527 486H308.695L311.943 477.568ZM316.306 486.16C318.242 486.16 319.666 485.024 320.05 483.152H318.946C318.674 484.496 317.698 485.28 316.29 485.28C314.642 485.28 313.586 484.048 313.49 482.048H320.018C320.21 479.344 318.642 477.408 316.242 477.408C314.002 477.408 312.37 479.248 312.37 481.712C312.37 484.384 313.938 486.16 316.306 486.16ZM316.226 478.272C317.778 478.272 318.754 479.392 318.85 481.28H313.49C313.634 479.44 314.706 478.272 316.226 478.272ZM323.325 475.616C323.325 475.136 322.957 474.784 322.413 474.784C321.885 474.784 321.517 475.136 321.517 475.616C321.517 476.112 321.885 476.464 322.413 476.464C322.957 476.464 323.325 476.112 323.325 475.616ZM322.989 486V477.568H321.869V486H322.989ZM326.536 481.088C326.536 479.52 327.592 478.384 328.904 478.384C330.28 478.384 331.016 479.296 331.016 480.912V486H332.136V480.528C332.136 478.528 331 477.408 329.24 477.408C328.024 477.408 327 478.112 326.456 479.152V477.568H325.416V486H326.536V481.088ZM337.678 489.264C339.982 489.264 341.31 487.984 341.31 485.808V477.568H340.27V479.36C339.726 478.128 338.67 477.408 337.406 477.408C335.278 477.408 333.87 479.104 333.87 481.664C333.87 484.224 335.294 485.936 337.422 485.936C338.67 485.936 339.694 485.248 340.206 484.064V485.824C340.206 487.488 339.326 488.368 337.662 488.368C336.158 488.368 335.262 487.632 335.166 486.256H334.094C334.19 488.144 335.534 489.264 337.678 489.264ZM334.99 481.664C334.99 479.616 335.982 478.368 337.582 478.368C339.182 478.368 340.222 479.68 340.222 481.744C340.222 483.696 339.166 484.976 337.582 484.976C335.966 484.976 334.99 483.728 334.99 481.664ZM351.424 484.928C351.072 485.072 350.784 485.136 350.432 485.136C349.504 485.136 348.864 484.688 348.864 483.376V478.512H351.504V477.568H348.864V475.072H347.744V477.568H345.76V478.512H347.744V483.616C347.744 485.44 348.816 486.16 350.208 486.16C350.624 486.16 350.992 486.096 351.424 485.92V484.928ZM358.381 486H359.341V480.512C359.341 478.56 358.189 477.408 356.221 477.408C354.301 477.408 353.005 478.656 352.957 480.528H353.981C353.997 479.152 354.861 478.304 356.237 478.304C357.517 478.304 358.269 479.136 358.269 480.544V481.248C357.437 481.184 357.053 481.152 356.541 481.152C353.981 481.152 352.669 482.016 352.669 483.664C352.669 485.184 353.805 486.16 355.549 486.16C356.861 486.16 357.885 485.52 358.381 484.464V486ZM353.741 483.632C353.741 482.464 354.669 481.904 356.589 481.904C357.053 481.904 357.549 481.92 358.269 481.984V482.736C358.269 484.32 357.277 485.344 355.709 485.344C354.525 485.344 353.741 484.656 353.741 483.632ZM362.817 486V481.952L367.105 486H368.561L363.953 481.696L368.209 477.568H366.881L362.817 481.488V474.512H361.697V486H362.817ZM372.821 486.16C374.757 486.16 376.181 485.024 376.565 483.152H375.461C375.189 484.496 374.213 485.28 372.805 485.28C371.157 485.28 370.101 484.048 370.005 482.048H376.533C376.725 479.344 375.157 477.408 372.757 477.408C370.517 477.408 368.885 479.248 368.885 481.712C368.885 484.384 370.453 486.16 372.821 486.16ZM372.741 478.272C374.293 478.272 375.269 479.392 375.365 481.28H370.005C370.149 479.44 371.221 478.272 372.741 478.272ZM379.504 481.088C379.504 479.52 380.56 478.384 381.872 478.384C383.248 478.384 383.984 479.296 383.984 480.912V486H385.104V480.528C385.104 478.528 383.968 477.408 382.208 477.408C380.992 477.408 379.968 478.112 379.424 479.152V477.568H378.384V486H379.504V481.088Z" fill="#191919"/>
<defs>
<filter id="filter0_d_756_1466" x="0" y="211" width="482" height="144" filterUnits="userSpaceOnUse" color-interpolation-filters="sRGB">
<feFlood flood-opacity="0" result="BackgroundImageFix"/>
<feColorMatrix in="SourceAlpha" type="matrix" values="0 0 0 0 0 0 0 0 0 0 0 0 0 0 0 0 0 0 127 0" result="hardAlpha"/>
<feOffset/>
<feGaussianBlur stdDeviation="17.5"/>
<feComposite in2="hardAlpha" operator="out"/>
<feColorMatrix type="matrix" values="0 0 0 0 0.683333 0 0 0 0 0.683333 0 0 0 0 0.683333 0 0 0 0.1 0"/>
<feBlend mode="normal" in2="BackgroundImageFix" result="effect1_dropShadow_756_1466"/>
<feBlend mode="normal" in="SourceGraphic" in2="effect1_dropShadow_756_1466" result="shape"/>
</filter>
<filter id="filter1_d_756_1466" x="0" y="309" width="482" height="144" filterUnits="userSpaceOnUse" color-interpolation-filters="sRGB">
<feFlood flood-opacity="0" result="BackgroundImageFix"/>
<feColorMatrix in="SourceAlpha" type="matrix" values="0 0 0 0 0 0 0 0 0 0 0 0 0 0 0 0 0 0 127 0" result="hardAlpha"/>
<feOffset/>
<feGaussianBlur stdDeviation="17.5"/>
<feComposite in2="hardAlpha" operator="out"/>
<feColorMatrix type="matrix" values="0 0 0 0 0.683333 0 0 0 0 0.683333 0 0 0 0 0.683333 0 0 0 0.1 0"/>
<feBlend mode="normal" in2="BackgroundImageFix" result="effect1_dropShadow_756_1466"/>
<feBlend mode="normal" in="SourceGraphic" in2="effect1_dropShadow_756_1466" result="shape"/>
</filter>
<filter id="filter2_d_756_1466" x="0" y="407" width="482" height="144" filterUnits="userSpaceOnUse" color-interpolation-filters="sRGB">
<feFlood flood-opacity="0" result="BackgroundImageFix"/>
<feColorMatrix in="SourceAlpha" type="matrix" values="0 0 0 0 0 0 0 0 0 0 0 0 0 0 0 0 0 0 127 0" result="hardAlpha"/>
<feOffset/>
<feGaussianBlur stdDeviation="17.5"/>
<feComposite in2="hardAlpha" operator="out"/>
<feColorMatrix type="matrix" values="0 0 0 0 0.683333 0 0 0 0 0.683333 0 0 0 0 0.683333 0 0 0 0.1 0"/>
<feBlend mode="normal" in2="BackgroundImageFix" result="effect1_dropShadow_756_1466"/>
<feBlend mode="normal" in="SourceGraphic" in2="effect1_dropShadow_756_1466" result="shape"/>
</filter>
</defs>
</svg>
