<svg width="482" height="552" viewBox="0 0 482 552" fill="none" xmlns="http://www.w3.org/2000/svg">
<rect x="1.5" y="1.5" width="479" height="549" rx="15.5" fill="#F9F9F9" stroke="#191919"/>
<g filter="url(#filter0_d_756_1041)">
<rect x="35" y="35" width="412" height="186" rx="8" fill="white"/>
</g>
<path d="M413.15 128C416.381 128 419.027 125.376 418.737 122.158C417.84 112.218 414.663 102.591 409.422 94.0376C403.158 83.8166 394.19 75.5268 383.509 70.0846C372.828 64.6424 360.851 62.2598 348.9 63.2004C336.95 64.1409 325.492 68.3678 315.794 75.4139C306.096 82.4599 298.535 92.0506 293.948 103.126C289.36 114.201 287.925 126.328 289.8 138.168C291.676 150.008 296.788 161.099 304.574 170.214C311.089 177.842 319.263 183.839 328.439 187.763C331.409 189.034 334.723 187.328 335.722 184.255C336.72 181.182 335.021 177.911 332.076 176.582C324.943 173.363 318.584 168.602 313.47 162.616C307.086 155.141 302.894 146.047 301.356 136.338C299.819 126.629 300.996 116.684 304.757 107.603C308.519 98.5215 314.719 90.6572 322.671 84.8794C330.623 79.1016 340.019 75.6355 349.818 74.8643C359.618 74.0931 369.439 76.0468 378.198 80.5094C386.956 84.9719 394.31 91.7696 399.446 100.151C403.559 106.864 406.122 114.383 406.979 122.162C407.333 125.373 409.919 128 413.15 128Z" fill="#F6F6F6"/>
<path d="M316.954 174.112C314.93 176.631 315.319 180.337 318.009 182.126C323.663 185.885 329.88 188.743 336.44 190.583C344.881 192.952 353.714 193.588 362.407 192.454C371.1 191.32 379.474 188.439 387.025 183.985C394.576 179.531 401.148 173.595 406.346 166.535C411.543 159.475 415.258 151.436 417.268 142.903C419.279 134.37 419.542 125.518 418.042 116.88C416.542 108.243 413.31 99.9976 408.541 92.6414C404.835 86.9245 400.26 81.8362 394.991 77.5548C392.484 75.5173 388.829 76.2476 387.025 78.928C385.221 81.6084 385.957 85.2204 388.423 87.3071C392.404 90.674 395.877 94.6138 398.724 99.0059C402.635 105.038 405.284 111.799 406.514 118.882C407.744 125.965 407.528 133.223 405.88 140.22C404.232 147.218 401.185 153.809 396.923 159.599C392.661 165.388 387.272 170.255 381.081 173.908C374.889 177.56 368.022 179.923 360.894 180.852C353.765 181.782 346.522 181.26 339.601 179.318C334.561 177.904 329.767 175.758 325.37 172.958C322.645 171.223 318.977 171.593 316.954 174.112Z" fill="#79C7E3"/>
<path d="M336.512 125.22C340.538 125.22 342.386 122.47 342.386 120.05C342.386 117.542 340.78 114.946 336.996 114.946C336.226 114.946 335.456 115.1 334.774 115.43L335.082 113.516H341.484V110.128H332.332L331.012 118.488L334.158 119.544C334.488 118.598 335.28 118.18 336.336 118.18C337.986 118.18 338.47 119.214 338.47 120.028C338.47 120.82 338.074 121.832 336.49 121.832C335.324 121.832 334.488 121.326 334.29 120.292H330.484C330.594 123.152 333.146 125.22 336.512 125.22ZM349.359 125.176C352.967 125.176 355.409 122.822 355.409 119.94C355.409 117.168 353.275 115.122 350.107 115.122H349.865L354.045 110.128H349.777L345.289 115.408C343.793 117.168 343.353 118.378 343.353 120.204C343.353 122.844 345.795 125.176 349.359 125.176ZM349.403 122.008C348.347 122.008 347.313 121.436 347.313 120.072C347.313 118.642 348.347 118.092 349.403 118.092C350.459 118.092 351.471 118.642 351.471 120.072C351.471 121.436 350.459 122.008 349.403 122.008ZM361.279 119.236C364.095 119.236 366.273 117.146 366.273 114.616C366.273 112.064 364.095 109.996 361.279 109.996C358.463 109.996 356.285 112.064 356.285 114.616C356.285 117.146 358.463 119.236 361.279 119.236ZM365.371 125L373.863 110.128H370.893L362.401 125H365.371ZM361.279 116.574C360.267 116.574 359.321 115.958 359.321 114.616C359.321 113.274 360.267 112.658 361.279 112.658C362.313 112.658 363.215 113.274 363.215 114.616C363.215 115.958 362.313 116.574 361.279 116.574ZM375.447 125.198C378.263 125.198 380.441 123.108 380.441 120.578C380.441 118.026 378.263 115.958 375.447 115.958C372.631 115.958 370.453 118.026 370.453 120.578C370.453 123.108 372.631 125.198 375.447 125.198ZM375.447 122.536C374.435 122.536 373.489 121.92 373.489 120.578C373.489 119.236 374.435 118.62 375.447 118.62C376.481 118.62 377.383 119.236 377.383 120.578C377.383 121.92 376.481 122.536 375.447 122.536Z" fill="#191919"/>
<path d="M330.874 149V148.062H326.184V138.948H325.134V149H330.874ZM335.03 149.14C336.724 149.14 337.97 148.146 338.306 146.508H337.34C337.102 147.684 336.248 148.37 335.016 148.37C333.574 148.37 332.65 147.292 332.566 145.542H338.278C338.446 143.176 337.074 141.482 334.974 141.482C333.014 141.482 331.586 143.092 331.586 145.248C331.586 147.586 332.958 149.14 335.03 149.14ZM334.96 142.238C336.318 142.238 337.172 143.218 337.256 144.87H332.566C332.692 143.26 333.63 142.238 334.96 142.238ZM344.434 149H345.274V144.198C345.274 142.49 344.266 141.482 342.544 141.482C340.864 141.482 339.73 142.574 339.688 144.212H340.584C340.598 143.008 341.354 142.266 342.558 142.266C343.678 142.266 344.336 142.994 344.336 144.226V144.842C343.608 144.786 343.272 144.758 342.824 144.758C340.584 144.758 339.436 145.514 339.436 146.956C339.436 148.286 340.43 149.14 341.956 149.14C343.104 149.14 344 148.58 344.434 147.656V149ZM340.374 146.928C340.374 145.906 341.186 145.416 342.866 145.416C343.272 145.416 343.706 145.43 344.336 145.486V146.144C344.336 147.53 343.468 148.426 342.096 148.426C341.06 148.426 340.374 147.824 340.374 146.928ZM346.789 145.304C346.789 147.572 348.049 149.14 350.037 149.14C351.171 149.14 352.123 148.524 352.641 147.446V149H353.551V138.948H352.571V143.162C352.081 142.112 351.143 141.482 350.037 141.482C348.049 141.482 346.789 143.036 346.789 145.304ZM347.783 145.304C347.783 143.428 348.735 142.336 350.177 142.336C351.577 142.336 352.585 143.414 352.585 145.276C352.585 147.124 351.605 148.286 350.177 148.286C348.735 148.286 347.783 147.18 347.783 145.304ZM361.191 146.942C361.191 145.892 360.533 145.276 359.063 144.996L357.957 144.786C356.865 144.576 356.417 144.226 356.417 143.498C356.417 142.728 357.131 142.238 358.167 142.238C359.329 142.238 360.071 142.84 360.169 143.862H361.093C360.981 142.392 359.861 141.482 358.167 141.482C356.557 141.482 355.465 142.35 355.465 143.582C355.465 144.646 356.207 145.332 357.607 145.598L358.671 145.808C359.791 146.032 360.211 146.368 360.211 147.096C360.211 147.936 359.483 148.398 358.279 148.398C357.019 148.398 356.193 147.74 356.123 146.69H355.185C355.325 148.216 356.445 149.14 358.279 149.14C360.099 149.14 361.191 148.3 361.191 146.942ZM370.008 149H371.114L373.76 138.948H372.724L370.54 147.502L368.216 138.948H367.096L364.744 147.474L362.574 138.948H361.552L364.198 149H365.29L367.656 140.376L370.008 149ZM376.459 139.914C376.459 139.494 376.137 139.186 375.661 139.186C375.199 139.186 374.877 139.494 374.877 139.914C374.877 140.348 375.199 140.656 375.661 140.656C376.137 140.656 376.459 140.348 376.459 139.914ZM376.165 149V141.622H375.185V149H376.165ZM379.269 144.702C379.269 143.33 380.193 142.336 381.341 142.336C382.545 142.336 383.189 143.134 383.189 144.548V149H384.169V144.212C384.169 142.462 383.175 141.482 381.635 141.482C380.571 141.482 379.675 142.098 379.199 143.008V141.622H378.289V149H379.269V144.702Z" fill="#191919" fill-opacity="0.6"/>
<path d="M68.9 84V72.38H73.44V69.64H61.34V72.38H65.86V84H68.9ZM78.4248 84.2C81.5248 84.2 83.8448 81.76 83.8448 78.66C83.8448 75.54 81.5248 73.12 78.4248 73.12C75.3248 73.12 73.0048 75.54 73.0048 78.66C73.0048 81.76 75.3248 84.2 78.4248 84.2ZM78.4248 81.74C77.0448 81.74 75.8648 80.64 75.8648 78.66C75.8648 76.68 77.0448 75.6 78.4248 75.6C79.8048 75.6 80.9848 76.68 80.9848 78.66C80.9848 80.64 79.8048 81.74 78.4248 81.74ZM92.0636 81.3C91.6636 81.52 91.1836 81.64 90.6636 81.64C89.6636 81.64 89.1036 81.14 89.1036 79.9V75.7H92.1636V73.32H89.1036V70.16H86.3436V73.32H84.1836V75.7H86.3436V80.54C86.3436 82.94 87.7236 84.2 89.9236 84.2C90.7436 84.2 91.3836 84.06 92.0636 83.72V81.3ZM100.221 84H102.481V77.28C102.481 74.66 100.841 73.12 98.0411 73.12C95.4611 73.12 93.6811 74.72 93.5211 77.18H96.0211C96.1211 75.98 96.8411 75.28 98.0411 75.28C99.2011 75.28 99.8811 75.98 99.8811 77.18V77.82C99.2211 77.74 98.7011 77.7 98.1011 77.7C94.9811 77.7 93.3011 78.82 93.3011 80.9C93.3011 82.9 94.7811 84.2 97.0011 84.2C98.4611 84.2 99.5211 83.68 100.221 82.68V84ZM95.9211 80.82C95.9211 79.86 96.7011 79.36 98.2811 79.36C98.7611 79.36 99.2211 79.4 99.8811 79.5V80.26C99.8811 81.5 99.0211 82.28 97.6011 82.28C96.5611 82.28 95.9211 81.72 95.9211 80.82ZM107.677 84V69.64H104.877V84H107.677ZM123.869 84V81.26H117.629V69.64H114.589V84H123.869ZM130.122 84.18C132.722 84.18 134.582 82.8 135.182 80.38H132.422C132.102 81.44 131.282 82.04 130.062 82.04C128.642 82.04 127.802 81.08 127.622 79.34H135.202C135.702 75.86 133.462 73.12 130.082 73.12C127.002 73.12 124.782 75.44 124.782 78.62C124.782 81.96 126.922 84.18 130.122 84.18ZM130.022 75.16C131.342 75.16 132.182 76.1 132.262 77.58H127.662C127.902 76 128.722 75.16 130.022 75.16ZM143.424 84H145.684V77.28C145.684 74.66 144.044 73.12 141.244 73.12C138.664 73.12 136.884 74.72 136.724 77.18H139.224C139.324 75.98 140.044 75.28 141.244 75.28C142.404 75.28 143.084 75.98 143.084 77.18V77.82C142.424 77.74 141.904 77.7 141.304 77.7C138.184 77.7 136.504 78.82 136.504 80.9C136.504 82.9 137.984 84.2 140.204 84.2C141.664 84.2 142.724 83.68 143.424 82.68V84ZM139.124 80.82C139.124 79.86 139.904 79.36 141.484 79.36C141.964 79.36 142.424 79.4 143.084 79.5V80.26C143.084 81.5 142.224 82.28 140.804 82.28C139.764 82.28 139.124 81.72 139.124 80.82ZM147.38 78.66C147.38 81.78 149.24 84.2 152.12 84.2C153.5 84.2 154.66 83.58 155.5 82.46V84H158.04V69.64H155.28V74.7C154.48 73.68 153.4 73.12 152.12 73.12C149.24 73.12 147.38 75.5 147.38 78.66ZM150.24 78.66C150.24 76.62 151.38 75.58 152.74 75.58C154.1 75.58 155.26 76.6 155.26 78.62C155.26 80.64 154.12 81.72 152.74 81.72C151.38 81.72 150.24 80.66 150.24 78.66ZM169.541 80.58C169.541 79.04 168.481 78.08 166.401 77.68L164.341 77.3C163.381 77.12 162.941 76.86 162.941 76.22C162.941 75.54 163.621 75.16 164.641 75.16C165.821 75.16 166.601 75.8 166.701 76.84H169.361C169.161 74.54 167.321 73.12 164.641 73.12C161.981 73.12 160.281 74.5 160.281 76.48C160.281 78.14 161.441 79.2 163.361 79.54L165.281 79.9C166.301 80.1 166.741 80.38 166.741 81.06C166.741 81.82 165.921 82.16 164.841 82.16C163.461 82.16 162.521 81.46 162.501 80.36H159.841C160.061 82.74 161.761 84.2 164.801 84.2C167.841 84.2 169.541 82.82 169.541 80.58Z" fill="#191919"/>
<path d="M67.874 111V110.062H63.184V100.948H62.134V111H67.874ZM73.9008 111H74.7408V106.198C74.7408 104.49 73.7328 103.482 72.0108 103.482C70.3308 103.482 69.1968 104.574 69.1548 106.212H70.0508C70.0648 105.008 70.8208 104.266 72.0248 104.266C73.1448 104.266 73.8028 104.994 73.8028 106.226V106.842C73.0748 106.786 72.7388 106.758 72.2908 106.758C70.0508 106.758 68.9028 107.514 68.9028 108.956C68.9028 110.286 69.8968 111.14 71.4228 111.14C72.5708 111.14 73.4668 110.58 73.9008 109.656V111ZM69.8408 108.928C69.8408 107.906 70.6528 107.416 72.3328 107.416C72.7388 107.416 73.1728 107.43 73.8028 107.486V108.144C73.8028 109.53 72.9348 110.426 71.5628 110.426C70.5268 110.426 69.8408 109.824 69.8408 108.928ZM82.3183 108.942C82.3183 107.892 81.6603 107.276 80.1903 106.996L79.0843 106.786C77.9923 106.576 77.5443 106.226 77.5443 105.498C77.5443 104.728 78.2583 104.238 79.2943 104.238C80.4563 104.238 81.1983 104.84 81.2963 105.862H82.2203C82.1083 104.392 80.9883 103.482 79.2943 103.482C77.6843 103.482 76.5923 104.35 76.5923 105.582C76.5923 106.646 77.3343 107.332 78.7343 107.598L79.7983 107.808C80.9183 108.032 81.3383 108.368 81.3383 109.096C81.3383 109.936 80.6103 110.398 79.4063 110.398C78.1463 110.398 77.3203 109.74 77.2503 108.69H76.3123C76.4523 110.216 77.5723 111.14 79.4063 111.14C81.2263 111.14 82.3183 110.3 82.3183 108.942ZM87.7603 110.062C87.4523 110.188 87.2003 110.244 86.8923 110.244C86.0803 110.244 85.5203 109.852 85.5203 108.704V104.448H87.8303V103.622H85.5203V101.438H84.5403V103.622H82.8043V104.448H84.5403V108.914C84.5403 110.51 85.4783 111.14 86.6963 111.14C87.0603 111.14 87.3823 111.084 87.7603 110.93V110.062ZM100.008 111H101.114L103.76 100.948H102.724L100.54 109.502L98.2158 100.948H97.0958L94.7438 109.474L92.5738 100.948H91.5518L94.1978 111H95.2898L97.6558 102.376L100.008 111ZM107.427 111.14C109.121 111.14 110.367 110.146 110.703 108.508H109.737C109.499 109.684 108.645 110.37 107.413 110.37C105.971 110.37 105.047 109.292 104.963 107.542H110.675C110.843 105.176 109.471 103.482 107.371 103.482C105.411 103.482 103.983 105.092 103.983 107.248C103.983 109.586 105.355 111.14 107.427 111.14ZM107.357 104.238C108.715 104.238 109.569 105.218 109.653 106.87H104.963C105.089 105.26 106.027 104.238 107.357 104.238ZM115.056 111.14C116.75 111.14 117.996 110.146 118.332 108.508H117.366C117.128 109.684 116.274 110.37 115.042 110.37C113.6 110.37 112.676 109.292 112.592 107.542H118.304C118.472 105.176 117.1 103.482 115 103.482C113.04 103.482 111.612 105.092 111.612 107.248C111.612 109.586 112.984 111.14 115.056 111.14ZM114.986 104.238C116.344 104.238 117.198 105.218 117.282 106.87H112.592C112.718 105.26 113.656 104.238 114.986 104.238ZM120.903 111V107.458L124.655 111H125.929L121.897 107.234L125.621 103.622H124.459L120.903 107.052V100.948H119.923V111H120.903Z" fill="#191919" fill-opacity="0.5"/>
<path d="M73.104 163.026V160.272C78 159.796 81.026 156.94 81.026 152.622C81.026 149.29 78.646 147.114 74.396 146.23L70.656 145.448C69.5 145.21 68.514 144.564 68.514 143.578C68.514 142.048 69.772 141.368 71.438 141.368C73.41 141.368 74.736 142.592 74.872 144.462H80.686C80.38 140.28 77.422 137.458 73.104 136.812V133.922H69.364V136.812C65.352 137.492 62.598 140.28 62.598 144.02C62.598 148.134 65.284 149.834 68.752 150.582L72.56 151.398C73.682 151.636 74.77 152.384 74.77 153.37C74.77 154.832 73.308 155.614 71.302 155.614C68.922 155.614 67.494 154.39 67.494 152.384H61.68C62.02 156.634 64.876 159.49 69.364 160.17V163.026H73.104ZM91.5732 160.306C97.1152 160.306 100.855 157.348 100.855 152.962C100.855 150.582 99.3592 148.848 96.6392 147.896C98.7132 146.672 99.8352 145.108 99.8352 143.136C99.8352 139.362 96.7412 136.676 91.5732 136.676C86.7792 136.676 83.0732 139.804 83.0732 143.952H88.7512C88.7512 142.286 89.7032 141.266 91.2672 141.266C92.8992 141.266 93.8172 142.116 93.8172 143.612C93.8172 145.142 92.6952 145.958 90.6212 145.958H88.3772V150.548H90.9612C93.4432 150.548 94.8372 151.466 94.8372 153.098C94.8372 154.764 93.6812 155.716 91.6412 155.716C89.7372 155.716 88.5472 154.73 88.4112 153.03H82.6992C82.6992 157.28 86.4052 160.306 91.5732 160.306ZM110.2 156.464C110.2 154.254 108.704 152.724 106.528 152.724C104.352 152.724 102.822 154.254 102.822 156.464C102.822 158.64 104.352 160.17 106.528 160.17C108.704 160.17 110.2 158.64 110.2 156.464ZM129.602 154.764H121.442L123.89 152.384C128.14 148.27 129.194 146.536 129.194 143.646C129.194 139.668 125.59 136.676 120.762 136.676C115.458 136.676 111.752 140.11 111.752 144.972H117.43C117.43 143.034 118.518 141.912 120.456 141.912C122.122 141.912 123.074 142.83 123.074 144.394C123.074 146.298 121.884 147.59 119.334 150.072L112.5 156.668V160H129.602V154.764ZM140.824 160.34C147.046 160.34 149.902 156.09 149.902 152.35C149.902 148.474 147.42 144.462 141.572 144.462C140.382 144.462 139.192 144.7 138.138 145.21L138.614 142.252H148.508V137.016H134.364L132.324 149.936L137.186 151.568C137.696 150.106 138.92 149.46 140.552 149.46C143.102 149.46 143.85 151.058 143.85 152.316C143.85 153.54 143.238 155.104 140.79 155.104C138.988 155.104 137.696 154.322 137.39 152.724H131.508C131.678 157.144 135.622 160.34 140.824 160.34ZM152.11 148.542C152.11 156.124 155.408 160.34 161.358 160.34C167.308 160.34 170.606 156.124 170.606 148.542C170.606 140.926 167.24 136.676 161.358 136.676C155.476 136.676 152.11 140.926 152.11 148.542ZM158.128 148.542C158.128 144.292 159.284 141.912 161.358 141.912C163.432 141.912 164.588 144.258 164.588 148.542C164.588 152.792 163.432 155.104 161.358 155.104C159.216 155.104 158.128 152.792 158.128 148.542Z" fill="#191919"/>
<path d="M61.96 185.476V186.436H64.48V188.968H65.44V186.436H67.96V185.476H65.44V182.956H64.48V185.476H61.96ZM71.9939 185.512C73.3739 185.512 74.0939 186.208 74.0939 187.252C74.0939 188.368 73.3619 189.088 72.2339 189.088C71.1419 189.088 70.4459 188.428 70.4459 187.3H69.2819C69.2819 189.1 70.5059 190.144 72.2099 190.144C73.9739 190.144 75.2939 189.028 75.2939 187.276C75.2939 185.716 74.1779 184.72 72.7019 184.54L75.0779 182.272V181.324H69.6899V182.368H73.5899L71.1299 184.732V185.512H71.9939ZM77.199 190.144C77.655 190.144 78.051 189.76 78.051 189.304C78.051 188.836 77.655 188.452 77.199 188.452C76.731 188.452 76.335 188.836 76.335 189.304C76.335 189.76 76.731 190.144 77.199 190.144ZM85.2674 189.988V188.896H81.2594L83.0594 187.336C84.5954 186.004 85.2074 185.128 85.2074 183.892C85.2074 182.224 84.0914 181.168 82.3514 181.168C80.5874 181.168 79.4114 182.38 79.3754 184.24H80.5514C80.5754 183.004 81.2714 182.224 82.3394 182.224C83.3834 182.224 84.0074 182.872 84.0074 183.964C84.0074 184.888 83.6114 185.476 82.2074 186.688L79.4114 189.1V190L85.2674 189.988ZM90.6457 183.376C90.6457 182.08 89.7337 181.156 88.4497 181.156C87.1777 181.156 86.2657 182.08 86.2657 183.376C86.2657 184.66 87.1777 185.584 88.4497 185.584C89.7337 185.584 90.6457 184.66 90.6457 183.376ZM95.2177 181.336H94.0657L87.4777 190H88.6297L95.2177 181.336ZM89.7217 183.376C89.7217 184.144 89.1937 184.684 88.4497 184.684C87.7057 184.684 87.1897 184.144 87.1897 183.376C87.1897 182.596 87.7057 182.056 88.4497 182.056C89.2057 182.056 89.7217 182.596 89.7217 183.376ZM96.4537 187.948C96.4537 186.652 95.5297 185.74 94.2577 185.74C92.9857 185.74 92.0617 186.652 92.0617 187.948C92.0617 189.232 92.9857 190.156 94.2577 190.156C95.5297 190.156 96.4537 189.232 96.4537 187.948ZM95.5177 187.948C95.5177 188.716 95.0017 189.256 94.2577 189.256C93.5137 189.256 92.9977 188.716 92.9977 187.948C92.9977 187.168 93.5137 186.628 94.2577 186.628C95.0137 186.628 95.5177 187.168 95.5177 187.948Z" fill="#824FE7"/>
<path d="M115.595 180.406C114.686 179.497 113.528 178.877 112.267 178.625C111.006 178.374 109.698 178.502 108.51 178.994C107.322 179.486 106.307 180.319 105.592 181.388C104.877 182.457 104.496 183.714 104.496 185C104.496 186.286 104.877 187.543 105.592 188.612C106.307 189.681 107.322 190.514 108.51 191.006C109.698 191.498 111.006 191.626 112.267 191.375C113.528 191.123 114.686 190.503 115.595 189.594C116.198 188.991 116.677 188.275 117.004 187.486C117.331 186.698 117.499 185.853 117.499 185C117.499 184.147 117.331 183.302 117.004 182.514C116.677 181.725 116.198 181.009 115.595 180.406ZM113.251 186.25C113.251 186.383 113.198 186.51 113.105 186.604C113.011 186.697 112.884 186.75 112.751 186.75C112.618 186.75 112.491 186.697 112.397 186.604C112.304 186.51 112.251 186.383 112.251 186.25V184.456L109.607 187.106C109.511 187.197 109.384 187.248 109.251 187.25C109.118 187.249 108.991 187.198 108.895 187.106C108.801 187.011 108.748 186.883 108.748 186.75C108.748 186.617 108.801 186.489 108.895 186.394L111.545 183.75H109.751C109.618 183.75 109.491 183.697 109.397 183.604C109.304 183.51 109.251 183.383 109.251 183.25C109.251 183.117 109.304 182.99 109.397 182.896C109.491 182.803 109.618 182.75 109.751 182.75H112.751C112.815 182.75 112.879 182.763 112.938 182.788C113.062 182.837 113.161 182.934 113.213 183.056C113.238 183.118 113.251 183.184 113.251 183.25V186.25Z" fill="#824FE7"/>
<g filter="url(#filter1_d_756_1041)">
<rect x="35" y="249" width="412" height="268" rx="8" fill="white"/>
</g>
<path d="M72.08 297H75.34L69.98 282.64H66.66L61.26 297H64.32L65.42 293.92H71L72.08 297ZM68.24 285.96L70.16 291.5H66.28L68.24 285.96ZM79.6294 291.18C79.6294 289.46 80.5694 288.58 81.6694 288.58C82.9294 288.58 83.5494 289.46 83.5494 291.04V297H86.3094V290.1C86.3094 287.52 84.8294 286.12 82.6894 286.12C81.2894 286.12 80.1894 286.78 79.4094 287.84V286.32H76.8494V297H79.6294V291.18ZM95.0648 297H97.3248V290.28C97.3248 287.66 95.6848 286.12 92.8848 286.12C90.3048 286.12 88.5248 287.72 88.3648 290.18H90.8648C90.9648 288.98 91.6848 288.28 92.8848 288.28C94.0448 288.28 94.7248 288.98 94.7248 290.18V290.82C94.0648 290.74 93.5448 290.7 92.9448 290.7C89.8248 290.7 88.1448 291.82 88.1448 293.9C88.1448 295.9 89.6248 297.2 91.8448 297.2C93.3048 297.2 94.3648 296.68 95.0648 295.68V297ZM90.7648 293.82C90.7648 292.86 91.5448 292.36 93.1248 292.36C93.6048 292.36 94.0648 292.4 94.7248 292.5V293.26C94.7248 294.5 93.8648 295.28 92.4448 295.28C91.4048 295.28 90.7648 294.72 90.7648 293.82ZM102.52 297V282.64H99.7205V297H102.52ZM114.633 286.32H111.853L109.413 293.64L106.733 286.32H103.733L107.933 296.88L106.413 300.86H109.433L114.633 286.32ZM122.884 294.3C122.484 294.52 122.004 294.64 121.484 294.64C120.484 294.64 119.924 294.14 119.924 292.9V288.7H122.984V286.32H119.924V283.16H117.164V286.32H115.004V288.7H117.164V293.54C117.164 295.94 118.544 297.2 120.744 297.2C121.564 297.2 122.204 297.06 122.884 296.72V294.3ZM127.901 283.84C127.901 282.86 127.141 282.16 126.041 282.16C124.961 282.16 124.201 282.86 124.201 283.84C124.201 284.78 124.961 285.48 126.041 285.48C127.141 285.48 127.901 284.78 127.901 283.84ZM127.461 297V286.32H124.681V297H127.461ZM134.435 297.2C137.295 297.2 139.295 295.38 139.615 292.44H136.695C136.535 293.9 135.715 294.74 134.435 294.74C132.975 294.74 132.075 293.58 132.075 291.66C132.075 289.76 132.995 288.58 134.435 288.58C135.695 288.58 136.555 289.46 136.695 290.88H139.615C139.275 288 137.215 286.12 134.435 286.12C131.435 286.12 129.235 288.46 129.235 291.66C129.235 294.92 131.355 297.2 134.435 297.2ZM150.42 293.58C150.42 292.04 149.36 291.08 147.28 290.68L145.22 290.3C144.26 290.12 143.82 289.86 143.82 289.22C143.82 288.54 144.5 288.16 145.52 288.16C146.7 288.16 147.48 288.8 147.58 289.84H150.24C150.04 287.54 148.2 286.12 145.52 286.12C142.86 286.12 141.16 287.5 141.16 289.48C141.16 291.14 142.32 292.2 144.24 292.54L146.16 292.9C147.18 293.1 147.62 293.38 147.62 294.06C147.62 294.82 146.8 295.16 145.72 295.16C144.34 295.16 143.4 294.46 143.38 293.36H140.72C140.94 295.74 142.64 297.2 145.68 297.2C148.72 297.2 150.42 295.82 150.42 293.58Z" fill="#191919"/>
<rect x="357.438" y="278.438" width="62.1887" height="21.4354" rx="5.56199" fill="white" stroke="#EAEAEA" stroke-width="0.876023"/>
<path d="M370.663 289.852L367.683 284.738H368.677L370.847 288.528C370.888 288.618 370.929 288.704 370.97 288.786C371.019 288.867 371.064 288.957 371.105 289.055C371.146 288.982 371.174 288.924 371.191 288.884C371.207 288.843 371.228 288.798 371.252 288.749C371.277 288.7 371.318 288.626 371.375 288.528L373.521 284.738H374.49L371.546 289.852V293.52H370.663V289.852ZM376.826 293.667C376.254 293.667 375.747 293.536 375.305 293.274C374.872 293.013 374.532 292.649 374.287 292.183C374.042 291.717 373.919 291.173 373.919 290.552C373.919 289.938 374.038 289.399 374.275 288.933C374.52 288.458 374.855 288.091 375.281 287.829C375.706 287.559 376.2 287.424 376.765 287.424C377.304 287.424 377.774 287.543 378.175 287.78C378.584 288.017 378.899 288.348 379.119 288.773C379.348 289.19 379.463 289.681 379.463 290.245V290.662H374.385L374.41 290.049H378.616C378.616 289.476 378.445 289.019 378.101 288.675C377.766 288.324 377.321 288.148 376.765 288.148C376.356 288.148 375.996 288.242 375.685 288.43C375.383 288.618 375.15 288.888 374.986 289.239C374.823 289.583 374.741 289.991 374.741 290.466C374.741 291.251 374.921 291.86 375.281 292.293C375.648 292.726 376.168 292.943 376.838 292.943C377.321 292.943 377.717 292.841 378.028 292.636C378.338 292.432 378.547 292.134 378.653 291.741H379.463C379.307 292.363 379.005 292.841 378.555 293.176C378.105 293.503 377.529 293.667 376.826 293.667ZM382.461 293.667C381.831 293.667 381.336 293.503 380.977 293.176C380.625 292.849 380.449 292.428 380.449 291.913C380.449 291.365 380.645 290.928 381.038 290.601C381.43 290.274 381.974 290.081 382.669 290.024L384.631 289.865V289.669C384.631 289.276 384.562 288.969 384.423 288.749C384.284 288.52 384.096 288.36 383.859 288.27C383.622 288.18 383.356 288.135 383.062 288.135C382.538 288.135 382.134 288.246 381.847 288.467C381.561 288.687 381.418 288.998 381.418 289.399H380.645C380.645 288.998 380.748 288.651 380.952 288.356C381.156 288.062 381.443 287.833 381.811 287.669C382.178 287.506 382.604 287.424 383.086 287.424C383.552 287.424 383.961 287.506 384.312 287.669C384.664 287.825 384.942 288.07 385.146 288.405C385.359 288.732 385.465 289.158 385.465 289.681V293.52H384.754L384.644 292.477C384.464 292.853 384.178 293.148 383.785 293.36C383.401 293.565 382.959 293.667 382.461 293.667ZM382.657 292.98C383.286 292.98 383.773 292.78 384.116 292.379C384.46 291.978 384.631 291.459 384.631 290.821V290.503L382.878 290.637C382.322 290.686 381.921 290.825 381.676 291.054C381.43 291.283 381.308 291.561 381.308 291.888C381.308 292.248 381.43 292.522 381.676 292.71C381.921 292.89 382.248 292.98 382.657 292.98ZM390.266 287.51V288.27H389.8C389.252 288.27 388.815 288.438 388.488 288.773C388.169 289.108 388.01 289.562 388.01 290.135V293.52H387.163V287.584H387.961L388.034 288.749H387.948C388.03 288.364 388.23 288.054 388.549 287.817C388.868 287.571 389.257 287.449 389.714 287.449C389.804 287.449 389.894 287.453 389.984 287.461C390.074 287.469 390.168 287.485 390.266 287.51Z" fill="#191919" fill-opacity="0.4"/>
<path d="M410.615 287.787L407.111 291.291L403.607 287.787" stroke="#B6B6B6" stroke-width="0.876023" stroke-linecap="round" stroke-linejoin="round"/>
<path d="M70.3333 484.929C70.3333 486.233 71.1112 487.126 72.4673 487.126C73.7393 487.126 74.6223 486.306 74.6223 484.94V479.473H73.8654V484.919C73.8654 485.812 73.4239 486.411 72.4673 486.411C71.5527 486.411 71.0691 485.823 71.0691 484.929V484.635H70.3333V484.929ZM77.6999 487.126C78.5619 487.126 79.2557 486.748 79.5711 486.107L79.6657 487H80.2754V483.71C80.2754 482.364 79.4134 481.775 78.236 481.775C76.9851 481.775 76.1441 482.438 76.1441 483.468H76.8064C76.8064 482.785 77.332 482.385 78.215 482.385C78.9614 482.385 79.5606 482.701 79.5606 483.699V483.867L77.8786 484.004C76.6907 484.099 75.9759 484.687 75.9759 485.623C75.9759 486.516 76.6172 487.126 77.6999 487.126ZM77.8681 486.538C77.1743 486.538 76.7118 486.222 76.7118 485.602C76.7118 485.034 77.1007 484.614 78.0573 484.53L79.5606 484.414V484.687C79.5606 485.791 78.9404 486.538 77.8681 486.538ZM82.4563 487V484.34C82.4563 483.195 83.045 482.438 84.0857 482.438C84.9267 482.438 85.4628 482.858 85.4628 484.046V487H86.1882V483.888C86.1882 482.606 85.61 481.775 84.2119 481.775C83.476 481.775 82.8032 482.143 82.4668 482.795L82.3617 481.912H81.731V487H82.4563Z" fill="#191919" fill-opacity="0.4"/>
<rect x="61" y="331" width="34" height="131" rx="4" fill="#F6F6F6"/>
<path d="M61 404H95V458C95 460.209 93.2091 462 91 462H65C62.7909 462 61 460.209 61 458V404Z" fill="#8975F4"/>
<path d="M128.251 483.689V483.005H125.171V480.167H128.851V479.473H124.414V487H125.171V483.689H128.251ZM131.698 487.126C132.897 487.126 133.685 486.548 133.958 485.476H133.265C133.075 486.149 132.539 486.506 131.709 486.506C130.615 486.506 129.964 485.791 129.911 484.551H133.958V484.193C133.958 482.753 133.023 481.775 131.646 481.775C130.195 481.775 129.207 482.869 129.207 484.456C129.207 486.054 130.205 487.126 131.698 487.126ZM131.646 482.396C132.602 482.396 133.233 483.047 133.233 484.025H129.932C130.058 483.026 130.689 482.396 131.646 482.396ZM135.749 487L135.822 485.959C136.18 486.748 136.884 487.126 137.736 487.126C139.218 487.126 140.101 485.991 140.101 484.467C140.101 482.932 139.239 481.775 137.757 481.775C136.895 481.775 136.201 482.154 135.843 482.9V479.337H135.118V487H135.749ZM135.854 484.446C135.854 483.279 136.506 482.427 137.62 482.427C138.724 482.427 139.365 483.279 139.365 484.446C139.365 485.623 138.724 486.464 137.62 486.464C136.506 486.464 135.854 485.623 135.854 484.446Z" fill="#191919" fill-opacity="0.4"/>
<rect x="115" y="331" width="34" height="131" rx="4" fill="#F6F6F6"/>
<path d="M115 358H149V458C149 460.209 147.209 462 145 462H119C116.791 462 115 460.209 115 458V358Z" fill="#8975F4"/>
<path d="M179.694 487V483.31C179.694 482.164 179.673 481.334 179.631 481.05L182.08 487H182.805L185.255 481.019C185.213 481.534 185.192 482.112 185.192 483.426V487H185.938V479.473H185.181L182.437 486.107L179.694 479.473H178.947V487H179.694ZM189.069 487.126C189.931 487.126 190.625 486.748 190.94 486.107L191.035 487H191.645V483.71C191.645 482.364 190.783 481.775 189.605 481.775C188.354 481.775 187.513 482.438 187.513 483.468H188.176C188.176 482.785 188.701 482.385 189.584 482.385C190.331 482.385 190.93 482.701 190.93 483.699V483.867L189.248 484.004C188.06 484.099 187.345 484.687 187.345 485.623C187.345 486.516 187.986 487.126 189.069 487.126ZM189.237 486.538C188.544 486.538 188.081 486.222 188.081 485.602C188.081 485.034 188.47 484.614 189.427 484.53L190.93 484.414V484.687C190.93 485.791 190.31 486.538 189.237 486.538ZM195.76 481.849C195.581 481.807 195.445 481.796 195.287 481.796C194.572 481.796 194.036 482.154 193.836 482.701L193.784 481.912H193.1V487H193.826V484.099C193.826 483.132 194.425 482.501 195.36 482.501H195.76V481.849Z" fill="#191919" fill-opacity="0.4"/>
<rect x="170" y="331" width="34" height="131" rx="4" fill="#F6F6F6"/>
<path d="M170 427H204V458C204 460.209 202.209 462 200 462H174C171.791 462 170 460.209 170 458V427Z" fill="#8975F4"/>
<path d="M234.145 487L234.881 485.003H238.35L239.086 487H239.875L237.078 479.473H236.143L233.378 487H234.145ZM236.511 480.535C236.553 480.43 236.595 480.293 236.605 480.23C236.616 480.304 236.668 480.43 236.7 480.535L238.109 484.34H235.113L236.511 480.535ZM240.763 489.218H241.489V486.022C241.846 486.758 242.529 487.126 243.391 487.126C244.895 487.126 245.746 485.97 245.746 484.435C245.746 482.9 244.863 481.775 243.391 481.775C242.54 481.775 241.825 482.154 241.468 482.942L241.394 481.912H240.763V489.218ZM241.499 484.456C241.499 483.279 242.151 482.438 243.265 482.438C244.369 482.438 245.01 483.279 245.01 484.456C245.01 485.623 244.369 486.474 243.265 486.474C242.151 486.474 241.499 485.623 241.499 484.456ZM249.562 481.849C249.383 481.807 249.246 481.796 249.089 481.796C248.374 481.796 247.838 482.154 247.638 482.701L247.586 481.912H246.902V487H247.628V484.099C247.628 483.132 248.227 482.501 249.162 482.501H249.562V481.849Z" fill="#191919" fill-opacity="0.4"/>
<rect x="224" y="331" width="34" height="131" rx="4" fill="#F6F6F6"/>
<path d="M224 378H258V458C258 460.209 256.209 462 254 462H228C225.791 462 224 460.209 224 458V378Z" fill="#8975F4"/>
<path d="M287.088 487V483.31C287.088 482.164 287.067 481.334 287.025 481.05L289.474 487H290.2L292.649 481.019C292.607 481.534 292.586 482.112 292.586 483.426V487H293.332V479.473H292.575L289.832 486.107L287.088 479.473H286.342V487H287.088ZM296.464 487.126C297.326 487.126 298.019 486.748 298.335 486.107L298.429 487H299.039V483.71C299.039 482.364 298.177 481.775 297 481.775C295.749 481.775 294.908 482.438 294.908 483.468H295.57C295.57 482.785 296.096 482.385 296.979 482.385C297.725 482.385 298.324 482.701 298.324 483.699V483.867L296.642 484.004C295.454 484.099 294.74 484.687 294.74 485.623C294.74 486.516 295.381 487.126 296.464 487.126ZM296.632 486.538C295.938 486.538 295.475 486.222 295.475 485.602C295.475 485.034 295.864 484.614 296.821 484.53L298.324 484.414V484.687C298.324 485.791 297.704 486.538 296.632 486.538ZM299.867 489.218C300.098 489.271 300.329 489.292 300.634 489.292C301.359 489.292 301.853 488.966 302.148 488.167L304.481 481.912H303.735L302.127 486.348L300.487 481.912H299.719L301.78 487.305L301.559 487.904C301.307 488.587 300.865 488.619 300.424 488.619H299.867V489.218Z" fill="#191919" fill-opacity="0.4"/>
<rect x="278" y="331" width="34" height="131" rx="4" fill="#F6F6F6"/>
<path d="M278 404H312V458C312 460.209 310.209 462 308 462H282C279.791 462 278 460.209 278 458V404Z" fill="#8975F4"/>
<path d="M340.674 484.929C340.674 486.233 341.452 487.126 342.808 487.126C344.08 487.126 344.963 486.306 344.963 484.94V479.473H344.206V484.919C344.206 485.812 343.765 486.411 342.808 486.411C341.894 486.411 341.41 485.823 341.41 484.929V484.635H340.674V484.929ZM350.154 481.912V484.614C350.154 485.823 349.576 486.474 348.598 486.474C347.789 486.474 347.252 486.043 347.252 484.834V481.902H346.517V485.066C346.517 486.306 347.168 487.126 348.367 487.126C349.166 487.126 349.87 486.727 350.154 486.138L350.248 487H350.879V481.912H350.154ZM353.115 487V484.34C353.115 483.195 353.704 482.438 354.745 482.438C355.586 482.438 356.122 482.858 356.122 484.046V487H356.847V483.888C356.847 482.606 356.269 481.775 354.871 481.775C354.135 481.775 353.462 482.143 353.126 482.795L353.021 481.912H352.39V487H353.115Z" fill="#191919" fill-opacity="0.4"/>
<rect x="332" y="331" width="34" height="131" rx="4" fill="#F6F6F6"/>
<path d="M332 364H366V458C366 460.209 364.209 462 362 462H336C333.791 462 332 460.209 332 458V364Z" fill="#8975F4"/>
<path d="M396.098 487L396.834 485.003H400.303L401.039 487H401.827L399.031 479.473H398.096L395.331 487H396.098ZM398.464 480.535C398.506 480.43 398.548 480.293 398.558 480.23C398.569 480.304 398.621 480.43 398.653 480.535L400.061 484.34H397.065L398.464 480.535ZM406.198 481.912V484.614C406.198 485.823 405.62 486.474 404.642 486.474C403.833 486.474 403.296 486.043 403.296 484.835V481.902H402.561V485.066C402.561 486.306 403.212 487.126 404.411 487.126C405.21 487.126 405.914 486.727 406.198 486.138L406.292 487H406.923V481.912H406.198ZM408.087 484.309C408.087 485.697 408.97 486.842 410.421 486.842C411.294 486.842 411.998 486.422 412.345 485.707V486.916C412.345 487.978 411.651 488.682 410.61 488.682C409.696 488.682 409.065 488.198 408.907 487.379H408.182C408.382 488.608 409.296 489.344 410.6 489.344C412.092 489.344 413.06 488.356 413.06 486.842V481.912H412.429L412.355 482.932C412.029 482.185 411.357 481.775 410.474 481.775C408.981 481.775 408.087 482.921 408.087 484.309ZM408.813 484.298C408.813 483.268 409.443 482.417 410.537 482.417C411.651 482.417 412.282 483.216 412.282 484.298C412.282 485.392 411.63 486.191 410.526 486.191C409.454 486.191 408.813 485.339 408.813 484.298Z" fill="#191919" fill-opacity="0.4"/>
<rect x="387" y="331" width="34" height="131" rx="4" fill="#F6F6F6"/>
<path d="M387 404H421V458C421 460.209 419.209 462 417 462H391C388.791 462 387 460.209 387 458V404Z" fill="#8975F4"/>
<defs>
<filter id="filter0_d_756_1041" x="0" y="0" width="482" height="256" filterUnits="userSpaceOnUse" color-interpolation-filters="sRGB">
<feFlood flood-opacity="0" result="BackgroundImageFix"/>
<feColorMatrix in="SourceAlpha" type="matrix" values="0 0 0 0 0 0 0 0 0 0 0 0 0 0 0 0 0 0 127 0" result="hardAlpha"/>
<feOffset/>
<feGaussianBlur stdDeviation="17.5"/>
<feComposite in2="hardAlpha" operator="out"/>
<feColorMatrix type="matrix" values="0 0 0 0 0.683333 0 0 0 0 0.683333 0 0 0 0 0.683333 0 0 0 0.1 0"/>
<feBlend mode="normal" in2="BackgroundImageFix" result="effect1_dropShadow_756_1041"/>
<feBlend mode="normal" in="SourceGraphic" in2="effect1_dropShadow_756_1041" result="shape"/>
</filter>
<filter id="filter1_d_756_1041" x="0" y="214" width="482" height="338" filterUnits="userSpaceOnUse" color-interpolation-filters="sRGB">
<feFlood flood-opacity="0" result="BackgroundImageFix"/>
<feColorMatrix in="SourceAlpha" type="matrix" values="0 0 0 0 0 0 0 0 0 0 0 0 0 0 0 0 0 0 127 0" result="hardAlpha"/>
<feOffset/>
<feGaussianBlur stdDeviation="17.5"/>
<feComposite in2="hardAlpha" operator="out"/>
<feColorMatrix type="matrix" values="0 0 0 0 0.683333 0 0 0 0 0.683333 0 0 0 0 0.683333 0 0 0 0.1 0"/>
<feBlend mode="normal" in2="BackgroundImageFix" result="effect1_dropShadow_756_1041"/>
<feBlend mode="normal" in="SourceGraphic" in2="effect1_dropShadow_756_1041" result="shape"/>
</filter>
</defs>
</svg>
